<svg version="1.1" id="Layer_1" xmlns="http://www.w3.org/2000/svg" xmlns:xlink="http://www.w3.org/1999/xlink" x="0px" y="0px"
	 width="100%" viewBox="0 0 569 342" enable-background="new 0 0 569 342" xml:space="preserve">
<path fill="#FEFEFE" opacity="1.000000" stroke="none" 
	d="
M424.000000,343.000000 
	C282.705292,343.000000 141.910583,343.000000 1.057933,343.000000 
	C1.057933,229.069916 1.057933,115.139786 1.057933,1.104829 
	C190.544708,1.104829 380.089478,1.104829 569.817139,1.104829 
	C569.817139,114.999756 569.817139,228.999863 569.817139,343.000000 
	C521.473083,343.000000 472.986542,343.000000 424.000000,343.000000 
M62.347321,165.073288 
	C61.893242,165.706009 61.439159,166.338745 60.995903,166.997574 
	C60.995903,166.997574 60.971058,166.983368 60.245647,166.994034 
	C58.166744,168.999725 56.087841,171.005417 53.998890,173.494278 
	C53.998890,173.494278 53.990498,173.977478 53.257282,173.995682 
	C50.504082,176.662704 47.750877,179.329712 44.507679,182.329987 
	C44.336678,182.884018 44.165676,183.438034 43.272606,184.010498 
	C39.848301,188.007401 36.424000,192.004318 33.000000,196.000000 
	C33.000000,196.000000 33.001068,195.999863 32.312042,196.064743 
	C30.879204,197.713623 29.446369,199.362488 27.660770,201.517365 
	C26.773708,202.343689 25.886646,203.170013 24.390667,204.293594 
	C20.714867,208.245697 16.888275,212.074020 13.470482,216.237900 
	C12.628098,217.264160 13.116534,219.382782 13.006499,221.548859 
	C13.023899,221.731293 13.041298,221.913727 13.100686,222.753815 
	C13.832682,224.020020 14.564677,225.286240 15.296672,226.552444 
	C18.480251,224.136719 20.650295,222.927750 22.976791,222.360550 
	C59.608788,213.429932 96.260910,204.581863 132.964798,196.617767 
	C134.305557,209.596832 135.735031,222.567505 136.963943,235.557144 
	C138.405991,250.799805 139.361801,266.095459 141.140884,281.296478 
	C142.116806,289.635162 143.637421,298.068176 149.257660,305.728241 
	C154.278046,309.935516 157.991760,310.191711 163.025742,306.340759 
	C165.248154,304.640625 167.632309,302.833984 169.118134,300.541107 
	C177.867233,287.040070 186.681549,273.564270 194.883194,259.729767 
	C205.209091,242.312134 214.790665,224.452942 225.136200,207.047485 
	C226.960083,203.978973 230.953690,202.200119 234.225723,200.550018 
	C235.153534,204.532364 236.461212,208.470093 236.935165,212.505737 
	C238.166336,222.988907 238.726852,233.557571 240.185471,244.004105 
	C240.805130,248.442078 243.000275,252.660065 244.749496,257.721222 
	C247.829193,261.982880 251.684723,262.471710 255.319061,258.390137 
	C258.376923,254.956039 260.825256,250.952682 263.348175,247.074341 
	C268.566284,239.052826 273.654449,230.946762 279.413483,223.353012 
	C279.499268,224.772141 279.491333,226.204346 279.686981,227.608154 
	C280.546844,233.777588 281.465546,239.938828 282.516846,246.708206 
	C287.769379,252.975052 294.441345,254.137970 301.899780,251.848099 
	C305.859344,250.632416 309.936554,249.453949 313.541931,247.489990 
	C330.469269,238.269058 347.697754,229.492188 363.999847,219.252991 
	C409.187775,190.870819 453.978149,161.855377 498.904694,133.057526 
	C516.678284,121.664650 534.390503,110.176048 552.146912,98.756264 
	C554.709106,97.108398 556.793335,95.517799 552.934875,92.299698 
	C551.802185,89.312881 550.246582,88.537361 547.402039,90.693069 
	C545.501587,92.133255 543.117798,92.935547 540.315613,93.895935 
	C536.391663,94.861496 532.467712,95.827057 528.263733,96.713409 
	C528.263733,96.713409 528.014343,96.863495 527.326660,96.780006 
	C526.885010,96.902359 526.443298,97.024712 525.219727,97.193100 
	C524.745605,97.400124 524.271423,97.607140 523.534729,97.617859 
	C523.283569,97.644012 523.125305,97.779266 523.021606,97.989105 
	C523.021606,97.989105 523.004395,98.037720 522.180664,97.955399 
	C514.138428,99.971413 506.096252,101.987427 497.250275,103.998253 
	C482.155579,107.636932 467.077545,111.347191 451.955627,114.868965 
	C447.637573,115.874619 443.192200,116.333603 439.437317,116.732513 
	C443.562958,112.415596 448.099457,108.407784 451.664703,103.669212 
	C453.906677,100.689384 455.041046,96.707291 456.032898,93.003601 
	C457.014496,89.338249 457.249176,85.464668 457.711487,81.670235 
	C458.548492,74.800003 459.311127,67.920708 460.166901,60.507599 
	C452.653442,62.603168 445.784302,64.413040 439.006348,66.516800 
	C437.913055,66.856133 436.686584,68.397087 436.454681,69.567459 
	C435.821320,72.763702 435.686554,76.058731 435.303070,79.817032 
	C440.554565,78.438820 445.352539,77.179642 450.410431,75.852242 
	C450.210358,78.671921 449.946503,80.794724 449.928894,82.919571 
	C449.858765,91.396095 446.698456,98.284935 439.931427,103.558975 
	C435.683502,106.869690 431.185730,109.410408 425.729767,107.645355 
	C420.144501,105.838463 418.648804,100.593483 418.192261,95.693436 
	C416.433716,76.819557 419.107239,58.579449 427.709076,41.495712 
	C430.438354,36.075191 434.296234,31.532440 440.129700,29.123915 
	C446.631500,26.439453 451.370911,28.758516 452.928253,35.544941 
	C453.648285,38.682606 453.941650,41.918175 454.671509,46.702740 
	C457.618622,43.379345 461.544281,40.966572 461.568420,38.515450 
	C461.622314,33.032036 460.403046,27.277067 458.453949,22.102983 
	C456.340240,16.491848 450.863312,14.545593 444.833862,15.723946 
	C437.178345,17.220098 431.300293,21.739983 427.162872,27.854254 
	C411.471771,51.042561 406.999634,76.942894 410.489441,104.309441 
	C411.479095,112.069954 414.981598,118.972206 423.311005,121.672264 
	C409.271729,125.043892 395.232422,128.415527 381.206818,130.902969 
	C381.546295,128.005798 381.885773,125.108643 382.278717,121.754967 
	C371.186646,124.853630 360.811554,127.751999 349.963654,130.782440 
	C351.425476,118.893608 352.799072,107.722488 354.174408,96.537010 
	C363.058075,94.008736 371.664459,91.668442 380.177704,89.027939 
	C381.578003,88.593628 383.288177,87.011688 383.607849,85.664253 
	C384.395477,82.343979 384.457703,78.851601 384.848846,75.068169 
	C375.041199,77.797737 365.693207,80.399361 355.771515,83.160660 
	C356.926331,73.251610 357.918060,63.864208 359.248108,54.525002 
	C359.401215,53.449764 361.301788,52.187592 362.626648,51.786346 
	C370.703064,49.340332 378.865875,47.180561 386.951385,44.763096 
	C388.376404,44.337044 390.464142,43.350533 390.712036,42.270710 
	C391.550415,38.618927 391.699127,34.808804 392.184906,30.391365 
	C380.856323,33.591358 370.309418,37.061661 359.519409,39.419590 
	C353.777466,40.674370 352.456543,43.562901 351.908752,48.744434 
	C349.970001,67.083107 347.545563,85.369949 345.378143,103.685074 
	C343.874634,116.389984 342.490814,129.109055 340.229401,141.878754 
	C331.829254,143.845993 323.429077,145.813232 315.025421,146.990524 
	C318.941528,114.431580 322.857635,81.872635 326.799591,49.098724 
	C318.563751,50.914120 318.616699,50.920158 318.019379,56.156185 
	C316.701202,67.711884 315.375427,79.267448 313.893646,90.802628 
	C313.742035,91.982872 312.727661,93.714714 311.747681,94.021515 
	C303.768921,96.519348 295.703003,98.738686 287.200439,101.175499 
	C288.931396,86.768585 290.585693,72.999733 292.266449,59.010803 
	C287.176666,59.428764 283.766266,60.131207 283.541840,66.252434 
	C283.232513,74.687927 281.635437,83.074364 280.629059,91.486488 
	C277.984375,113.592751 275.360779,135.701538 271.996002,157.983704 
	C261.414703,160.556107 250.833389,163.128510 240.767075,165.035339 
	C243.512619,156.924454 247.345200,149.000488 248.778717,140.663971 
	C251.814728,123.008247 253.627823,105.140938 255.881317,87.352661 
	C256.663696,81.177017 257.265625,74.978516 257.999847,68.339378 
	C254.978043,69.120918 252.616898,69.731590 250.093201,70.384308 
	C247.374878,92.327805 244.777435,114.082237 241.940414,135.805374 
	C240.823853,144.354965 239.420105,152.943100 234.077545,160.141953 
	C230.683640,164.715057 223.958786,167.630875 220.231567,166.001541 
	C214.953125,163.694122 214.796448,158.555038 215.197876,154.049759 
	C216.730316,136.850769 218.702103,119.690460 220.558350,102.520966 
	C221.426193,94.493599 222.404831,86.478226 223.450516,77.444427 
	C220.040283,79.857674 215.550003,77.981499 214.950409,83.302765 
	C212.531570,104.770096 209.456894,126.173470 207.535049,147.681824 
	C206.795898,155.954163 208.488480,164.443787 208.549240,173.409317 
	C198.104523,175.915024 187.659790,178.420731 177.251984,180.033615 
	C180.988266,149.458023 184.724564,118.882446 188.532562,87.720184 
	C184.080414,89.330612 180.327591,88.871384 179.692001,94.836296 
	C176.559402,124.235191 172.714218,153.558151 168.366684,183.154358 
	C159.708908,185.165466 151.051147,187.176575 141.597015,189.048462 
	C139.323715,186.953247 137.050400,184.858047 134.280670,182.305298 
	C136.015305,181.577698 137.010727,181.160172 137.183884,181.087540 
	C136.655014,176.843582 136.587463,173.080750 135.632187,169.558670 
	C134.711517,166.164139 136.398178,162.000214 132.035706,159.321060 
	C130.656601,158.474075 131.833984,154.149185 130.881973,151.805710 
	C126.306709,140.543320 119.518150,133.201813 106.743576,135.129044 
	C93.996658,137.052078 84.474915,145.069000 74.291451,153.079300 
	C73.525009,154.383865 72.758568,155.688416 72.000000,157.000000 
	C72.000000,157.000000 71.992699,156.992065 71.263275,157.000259 
	C69.843658,158.334717 68.424042,159.669189 67.000000,161.000000 
	C67.000000,161.000000 67.003563,161.004639 66.278030,161.008743 
	C65.181641,162.333466 64.085251,163.658188 62.999470,164.999390 
	C62.999470,164.999390 62.982998,164.989029 62.347321,165.073288 
z"/>
<path fill="#BF514F" opacity="1.000000" stroke="none" 
	d="
M381.193146,131.787140 
	C395.232422,128.415527 409.271729,125.043892 423.970367,121.323685 
	C429.354889,119.664497 434.080048,118.353882 438.805206,117.043274 
	C443.192200,116.333603 447.637573,115.874619 451.955627,114.868965 
	C467.077545,111.347191 482.155579,107.636932 498.089813,104.025101 
	C506.954376,102.047195 514.979370,100.042458 523.004395,98.037720 
	C523.004395,98.037720 523.021606,97.989105 523.173218,98.010788 
	C523.504272,98.007141 523.661743,97.934372 523.797302,97.814163 
	C524.271423,97.607140 524.745605,97.400124 525.788818,97.368057 
	C526.910034,97.316505 527.462219,97.090004 528.014343,96.863495 
	C528.014343,96.863495 528.263733,96.713409 528.822021,96.812210 
	C530.963013,97.679932 532.545776,98.448853 533.932007,99.457550 
	C532.846985,100.205696 531.958557,100.714073 530.902832,100.950378 
	C529.845886,101.480431 528.956238,102.282562 527.850708,103.341949 
	C484.332306,131.653320 441.280151,160.104660 397.635986,187.616837 
	C370.196533,204.913956 341.979248,220.994003 313.849518,237.165344 
	C308.076508,240.484146 301.281158,242.465042 294.701050,243.812912 
	C288.398254,245.103989 285.326019,242.139267 285.011353,235.644135 
	C284.754486,230.341919 285.571747,224.984283 285.261169,219.689453 
	C285.101837,216.973557 283.516541,214.341324 282.575653,211.671280 
	C279.749573,212.689301 276.138062,212.948257 274.264496,214.886841 
	C270.614380,218.663727 267.750641,223.262299 264.901947,227.737503 
	C260.704987,234.330856 256.893127,241.168839 252.722855,247.780014 
	C251.591019,249.574310 249.760193,250.927689 247.606842,253.146271 
	C246.788055,250.341507 246.104218,248.804276 245.912354,247.207886 
	C244.860901,238.459534 244.203781,229.655014 242.878342,220.950912 
	C241.633835,212.778061 240.402969,204.490540 237.905060,196.655518 
	C235.771225,189.962418 229.483658,189.054459 224.478012,194.084213 
	C221.568161,197.008087 218.824615,200.286926 216.779694,203.849960 
	C207.007248,220.877274 197.738541,238.196442 187.819855,255.136154 
	C180.263168,268.041931 172.281021,280.725403 163.861908,293.081055 
	C161.677246,296.287231 157.144592,297.893463 153.690430,300.234558 
	C151.748138,296.750092 148.701019,293.456573 148.059952,289.747223 
	C145.629288,275.683289 143.624756,261.521912 142.127106,247.326721 
	C140.381500,230.781326 139.692139,214.120361 137.759628,197.601364 
	C137.198044,192.801071 137.443863,190.154053 142.393372,189.187683 
	C151.051147,187.176575 159.708908,185.165466 169.112976,183.005722 
	C172.311188,182.213531 174.763138,181.569992 177.215073,180.926437 
	C187.659790,178.420731 198.104523,175.915024 209.220520,173.172272 
	C220.011902,170.523773 230.131989,168.112335 240.252090,165.700897 
	C250.833389,163.128510 261.414703,160.556107 272.752533,157.935852 
	C275.949249,157.229416 278.389404,156.570801 281.241577,155.928146 
	C290.096252,153.906982 298.538910,151.869858 307.355560,149.795654 
	C310.162659,149.099213 312.595795,148.439850 315.028931,147.780472 
	C323.429077,145.813232 331.829254,143.845993 340.998810,141.735382 
	C354.909851,138.323715 368.051514,135.055435 381.193146,131.787140 
z"/>
<path fill="#F5EAE8" opacity="1.000000" stroke="none" 
	d="
M531.070068,101.222466 
	C531.958557,100.714073 532.846985,100.205696 534.269897,99.377045 
	C536.852966,97.378952 538.901672,95.701134 540.950317,94.023315 
	C543.117798,92.935547 545.501587,92.133255 547.402039,90.693069 
	C550.246582,88.537361 551.802185,89.312881 552.770386,92.918762 
	C545.035522,98.384590 537.448303,103.205276 529.897522,108.082375 
	C481.387939,139.414871 433.091980,171.084839 384.290863,201.956268 
	C361.673370,216.264023 338.223816,229.286606 314.856079,242.364059 
	C304.820618,247.980301 294.047333,252.375443 282.362915,246.103027 
	C281.465546,239.938828 280.546844,233.777588 279.686981,227.608154 
	C279.491333,226.204346 279.499268,224.772141 279.283203,222.783356 
	C279.458618,220.640457 279.764374,219.067215 280.070099,217.493958 
	C279.548584,217.266510 279.027039,217.039062 278.505524,216.811615 
	C275.865234,220.500305 273.057007,224.081787 270.619202,227.899765 
	C265.364655,236.129181 260.320251,244.492477 255.149796,252.775986 
	C252.651031,256.779175 249.012665,258.056580 244.479416,256.978027 
	C243.000275,252.660065 240.805130,248.442078 240.185471,244.004105 
	C238.726852,233.557571 238.166336,222.988907 236.935165,212.505737 
	C236.461212,208.470093 235.153534,204.532364 234.017731,199.867340 
	C232.242142,195.196625 229.870834,195.773834 227.392044,198.185776 
	C225.974976,199.564682 224.580368,201.068939 223.578812,202.756104 
	C216.714188,214.319565 210.003876,225.974533 203.153336,237.546432 
	C191.744965,256.817474 180.508316,276.197144 168.694092,295.217255 
	C164.430328,302.081635 158.071030,306.744598 149.039673,305.064697 
	C143.637421,298.068176 142.116806,289.635162 141.140884,281.296478 
	C139.361801,266.095459 138.405991,250.799805 136.963943,235.557144 
	C135.735031,222.567505 134.305557,209.596832 132.889999,195.850876 
	C132.526093,194.044098 132.236984,193.004211 131.994965,191.533188 
	C129.721832,178.207230 128.200775,165.100647 124.856010,152.477295 
	C121.527168,139.914001 113.504929,136.557693 101.396149,141.430588 
	C87.927704,146.850616 77.149185,156.287704 66.813019,166.165039 
	C59.382118,173.266083 52.251549,180.681427 44.983898,187.609222 
	C44.652084,186.171951 44.323380,185.082001 43.994675,183.992065 
	C44.165676,183.438034 44.336678,182.884018 44.962234,182.425781 
	C50.349243,181.755280 51.803951,177.499191 53.990498,173.977478 
	C53.990498,173.977478 53.998890,173.494278 54.368935,173.246048 
	C56.816338,170.992996 58.893696,168.988190 60.971054,166.983368 
	C60.971058,166.983368 60.995903,166.997574 61.314125,166.953796 
	C62.082565,166.269699 62.532784,165.629364 62.982998,164.989029 
	C62.982998,164.989029 62.999470,164.999390 63.339134,164.965057 
	C64.787056,163.622025 65.895309,162.313324 67.003563,161.004639 
	C67.003563,161.004639 67.000000,161.000000 67.379822,160.995758 
	C69.170654,159.658386 70.581680,158.325226 71.992706,156.992065 
	C71.992699,156.992065 72.000000,157.000000 72.353508,156.960144 
	C73.473167,155.615829 74.239311,154.311386 75.005463,153.006943 
	C84.474915,145.069000 93.996658,137.052078 106.743576,135.129044 
	C119.518150,133.201813 126.306709,140.543320 130.881973,151.805710 
	C131.833984,154.149185 130.656601,158.474075 132.035706,159.321060 
	C136.398178,162.000214 134.711517,166.164139 135.632187,169.558670 
	C136.587463,173.080750 136.655014,176.843582 137.183884,181.087540 
	C137.010727,181.160172 136.015305,181.577698 134.280670,182.305298 
	C137.050400,184.858047 139.323715,186.953247 141.995193,189.118073 
	C137.443863,190.154053 137.198044,192.801071 137.759628,197.601364 
	C139.692139,214.120361 140.381500,230.781326 142.127106,247.326721 
	C143.624756,261.521912 145.629288,275.683289 148.059952,289.747223 
	C148.701019,293.456573 151.748138,296.750092 153.690430,300.234558 
	C157.144592,297.893463 161.677246,296.287231 163.861908,293.081055 
	C172.281021,280.725403 180.263168,268.041931 187.819855,255.136154 
	C197.738541,238.196442 207.007248,220.877274 216.779694,203.849960 
	C218.824615,200.286926 221.568161,197.008087 224.478012,194.084213 
	C229.483658,189.054459 235.771225,189.962418 237.905060,196.655518 
	C240.402969,204.490540 241.633835,212.778061 242.878342,220.950912 
	C244.203781,229.655014 244.860901,238.459534 245.912354,247.207886 
	C246.104218,248.804276 246.788055,250.341507 247.606842,253.146271 
	C249.760193,250.927689 251.591019,249.574310 252.722855,247.780014 
	C256.893127,241.168839 260.704987,234.330856 264.901947,227.737503 
	C267.750641,223.262299 270.614380,218.663727 274.264496,214.886841 
	C276.138062,212.948257 279.749573,212.689301 282.575653,211.671280 
	C283.516541,214.341324 285.101837,216.973557 285.261169,219.689453 
	C285.571747,224.984283 284.754486,230.341919 285.011353,235.644135 
	C285.326019,242.139267 288.398254,245.103989 294.701050,243.812912 
	C301.281158,242.465042 308.076508,240.484146 313.849518,237.165344 
	C341.979248,220.994003 370.196533,204.913956 397.635986,187.616837 
	C441.280151,160.104660 484.332306,131.653320 528.151184,103.295563 
	C529.468384,102.402115 530.269226,101.812294 531.070068,101.222466 
z"/>
<path fill="#0A0909" opacity="1.000000" stroke="none" 
	d="
M439.121277,116.887894 
	C434.080048,118.353882 429.354889,119.664497 424.198425,121.051399 
	C414.981598,118.972206 411.479095,112.069954 410.489441,104.309441 
	C406.999634,76.942894 411.471771,51.042561 427.162872,27.854254 
	C431.300293,21.739983 437.178345,17.220098 444.833862,15.723946 
	C450.863312,14.545593 456.340240,16.491848 458.453949,22.102983 
	C460.403046,27.277067 461.622314,33.032036 461.568420,38.515450 
	C461.544281,40.966572 457.618622,43.379345 454.671509,46.702740 
	C453.941650,41.918175 453.648285,38.682606 452.928253,35.544941 
	C451.370911,28.758516 446.631500,26.439453 440.129700,29.123915 
	C434.296234,31.532440 430.438354,36.075191 427.709076,41.495712 
	C419.107239,58.579449 416.433716,76.819557 418.192261,95.693436 
	C418.648804,100.593483 420.144501,105.838463 425.729767,107.645355 
	C431.185730,109.410408 435.683502,106.869690 439.931427,103.558975 
	C446.698456,98.284935 449.858765,91.396095 449.928894,82.919571 
	C449.946503,80.794724 450.210358,78.671921 450.410431,75.852242 
	C445.352539,77.179642 440.554565,78.438820 435.303070,79.817032 
	C435.686554,76.058731 435.821320,72.763702 436.454681,69.567459 
	C436.686584,68.397087 437.913055,66.856133 439.006348,66.516800 
	C445.784302,64.413040 452.653442,62.603168 460.166901,60.507599 
	C459.311127,67.920708 458.548492,74.800003 457.711487,81.670235 
	C457.249176,85.464668 457.014496,89.338249 456.032898,93.003601 
	C455.041046,96.707291 453.906677,100.689384 451.664703,103.669212 
	C448.099457,108.407784 443.562958,112.415596 439.121277,116.887894 
z"/>
<path fill="#090808" opacity="1.000000" stroke="none" 
	d="
M315.027161,147.385498 
	C312.595795,148.439850 310.162659,149.099213 307.362305,149.379944 
	C308.633789,135.217438 310.272491,121.433563 311.969513,107.159409 
	C303.662720,109.512154 295.756226,111.641479 287.947021,114.082199 
	C286.777863,114.447624 285.399658,116.189529 285.243561,117.435646 
	C283.639099,130.244492 282.266693,143.082382 280.829590,155.912186 
	C278.389404,156.570801 275.949249,157.229416 273.118896,157.848663 
	C275.360779,135.701538 277.984375,113.592751 280.629059,91.486488 
	C281.635437,83.074364 283.232513,74.687927 283.541840,66.252434 
	C283.766266,60.131207 287.176666,59.428764 292.266449,59.010803 
	C290.585693,72.999733 288.931396,86.768585 287.200439,101.175499 
	C295.703003,98.738686 303.768921,96.519348 311.747681,94.021515 
	C312.727661,93.714714 313.742035,91.982872 313.893646,90.802628 
	C315.375427,79.267448 316.701202,67.711884 318.019379,56.156185 
	C318.616699,50.920158 318.563751,50.914120 326.799591,49.098724 
	C322.857635,81.872635 318.941528,114.431580 315.027161,147.385498 
z"/>
<path fill="#090808" opacity="1.000000" stroke="none" 
	d="
M381.199982,131.345062 
	C368.051514,135.055435 354.909851,138.323715 341.410889,141.706909 
	C342.490814,129.109055 343.874634,116.389984 345.378143,103.685074 
	C347.545563,85.369949 349.970001,67.083107 351.908752,48.744434 
	C352.456543,43.562901 353.777466,40.674370 359.519409,39.419590 
	C370.309418,37.061661 380.856323,33.591358 392.184906,30.391365 
	C391.699127,34.808804 391.550415,38.618927 390.712036,42.270710 
	C390.464142,43.350533 388.376404,44.337044 386.951385,44.763096 
	C378.865875,47.180561 370.703064,49.340332 362.626648,51.786346 
	C361.301788,52.187592 359.401215,53.449764 359.248108,54.525002 
	C357.918060,63.864208 356.926331,73.251610 355.771515,83.160660 
	C365.693207,80.399361 375.041199,77.797737 384.848846,75.068169 
	C384.457703,78.851601 384.395477,82.343979 383.607849,85.664253 
	C383.288177,87.011688 381.578003,88.593628 380.177704,89.027939 
	C371.664459,91.668442 363.058075,94.008736 354.174408,96.537010 
	C352.799072,107.722488 351.425476,118.893608 349.963654,130.782440 
	C360.811554,127.751999 371.186646,124.853630 382.278717,121.754967 
	C381.885773,125.108643 381.546295,128.005798 381.199982,131.345062 
z"/>
<path fill="#0A0909" opacity="1.000000" stroke="none" 
	d="
M240.509583,165.368118 
	C230.131989,168.112335 220.011902,170.523773 209.482437,172.884796 
	C208.488480,164.443787 206.795898,155.954163 207.535049,147.681824 
	C209.456894,126.173470 212.531570,104.770096 214.950409,83.302765 
	C215.550003,77.981499 220.040283,79.857674 223.450516,77.444427 
	C222.404831,86.478226 221.426193,94.493599 220.558350,102.520966 
	C218.702103,119.690460 216.730316,136.850769 215.197876,154.049759 
	C214.796448,158.555038 214.953125,163.694122 220.231567,166.001541 
	C223.958786,167.630875 230.683640,164.715057 234.077545,160.141953 
	C239.420105,152.943100 240.823853,144.354965 241.940414,135.805374 
	C244.777435,114.082237 247.374878,92.327805 250.093201,70.384308 
	C252.616898,69.731590 254.978043,69.120918 257.999847,68.339378 
	C257.265625,74.978516 256.663696,81.177017 255.881317,87.352661 
	C253.627823,105.140938 251.814728,123.008247 248.778717,140.663971 
	C247.345200,149.000488 243.512619,156.924454 240.509583,165.368118 
z"/>
<path fill="#B0999B" opacity="1.000000" stroke="none" 
	d="
M282.439880,246.405609 
	C294.047333,252.375443 304.820618,247.980301 314.856079,242.364059 
	C338.223816,229.286606 361.673370,216.264023 384.290863,201.956268 
	C433.091980,171.084839 481.387939,139.414871 529.897522,108.082375 
	C537.448303,103.205276 545.035522,98.384590 552.801758,93.264694 
	C556.793335,95.517799 554.709106,97.108398 552.146912,98.756264 
	C534.390503,110.176048 516.678284,121.664650 498.904694,133.057526 
	C453.978149,161.855377 409.187775,190.870819 363.999847,219.252991 
	C347.697754,229.492188 330.469269,238.269058 313.541931,247.489990 
	C309.936554,249.453949 305.859344,250.632416 301.899780,251.848099 
	C294.441345,254.137970 287.769379,252.975052 282.439880,246.405609 
z"/>
<path fill="#0A0A0A" opacity="1.000000" stroke="none" 
	d="
M177.233521,180.480026 
	C174.763138,181.569992 172.311188,182.213531 169.489868,182.882507 
	C172.714218,153.558151 176.559402,124.235191 179.692001,94.836296 
	C180.327591,88.871384 184.080414,89.330612 188.532562,87.720184 
	C184.724564,118.882446 180.988266,149.458023 177.233521,180.480026 
z"/>
<path fill="#B79090" opacity="1.000000" stroke="none" 
	d="
M131.947861,191.964325 
	C132.236984,193.004211 132.526093,194.044098 132.861816,195.399414 
	C96.260910,204.581863 59.608788,213.429932 22.976791,222.360550 
	C20.650295,222.927750 18.480251,224.136719 15.296672,226.552444 
	C14.564677,225.286240 13.832682,224.020020 13.409727,222.391861 
	C14.552320,221.385056 15.385870,220.740219 16.458447,219.932861 
	C17.123613,219.134109 17.549755,218.497864 18.198753,217.843231 
	C18.421612,217.824860 18.866924,217.782318 19.084337,218.043243 
	C33.969471,215.010941 48.665096,211.836456 63.298473,208.397110 
	C86.203720,203.013626 109.066879,197.451050 131.947861,191.964325 
z"/>
<path fill="#B09B9C" opacity="1.000000" stroke="none" 
	d="
M149.148666,305.396484 
	C158.071030,306.744598 164.430328,302.081635 168.694092,295.217255 
	C180.508316,276.197144 191.744965,256.817474 203.153336,237.546432 
	C210.003876,225.974533 216.714188,214.319565 223.578812,202.756104 
	C224.580368,201.068939 225.974976,199.564682 227.392044,198.185776 
	C229.870834,195.773834 232.242142,195.196625 233.877502,199.505173 
	C230.953690,202.200119 226.960083,203.978973 225.136200,207.047485 
	C214.790665,224.452942 205.209091,242.312134 194.883194,259.729767 
	C186.681549,273.564270 177.867233,287.040070 169.118134,300.541107 
	C167.632309,302.833984 165.248154,304.640625 163.025742,306.340759 
	C157.991760,310.191711 154.278046,309.935516 149.148666,305.396484 
z"/>
<path fill="#B09C9D" opacity="1.000000" stroke="none" 
	d="
M244.614456,257.349609 
	C249.012665,258.056580 252.651031,256.779175 255.149796,252.775986 
	C260.320251,244.492477 265.364655,236.129181 270.619202,227.899765 
	C273.057007,224.081787 275.865234,220.500305 278.505524,216.811615 
	C279.027039,217.039062 279.548584,217.266510 280.070099,217.493958 
	C279.764374,219.067215 279.458618,220.640457 278.974457,222.544586 
	C273.654449,230.946762 268.566284,239.052826 263.348175,247.074341 
	C260.825256,250.952682 258.376923,254.956039 255.319061,258.390137 
	C251.684723,262.471710 247.829193,261.982880 244.614456,257.349609 
z"/>
<path fill="#F5EAE8" opacity="1.000000" stroke="none" 
	d="
M24.999584,203.996338 
	C25.886646,203.170013 26.773708,202.343689 28.209438,201.256683 
	C30.172426,199.330612 31.586748,197.665237 33.001068,195.999863 
	C33.001068,195.999863 33.000000,196.000000 33.358292,195.964020 
	C35.869499,195.021408 38.022415,194.114792 40.043053,193.511826 
	C32.978317,201.283325 26.045864,208.751160 19.085562,215.827545 
	C19.870939,213.958710 20.717283,212.498413 21.489721,211.000015 
	C22.686169,208.679108 23.832188,206.332214 24.999584,203.996338 
z"/>
<path fill="#F0F2EF" opacity="1.000000" stroke="none" 
	d="
M24.695126,204.144958 
	C23.832188,206.332214 22.686169,208.679108 21.489721,211.000015 
	C20.717283,212.498413 19.870939,213.958710 19.058548,216.041443 
	C19.059387,216.646805 18.853762,217.025665 18.667063,217.117859 
	C18.251425,217.380173 18.083267,217.597366 17.975891,217.861618 
	C17.549755,218.497864 17.123613,219.134109 16.114216,219.921051 
	C14.685030,220.380920 13.839102,220.690079 12.993173,220.999237 
	C13.116534,219.382782 12.628098,217.264160 13.470482,216.237900 
	C16.888275,212.074020 20.714867,208.245697 24.695126,204.144958 
z"/>
<path fill="#EFF4F1" opacity="1.000000" stroke="none" 
	d="
M40.175335,193.208160 
	C38.022415,194.114792 35.869499,195.021408 33.358139,195.964630 
	C36.424000,192.004318 39.848301,188.007401 43.633640,184.001282 
	C44.323380,185.082001 44.652084,186.171951 44.905052,187.847870 
	C44.568913,188.628510 44.308510,188.823166 43.662697,189.013382 
	C42.233173,190.394440 41.189056,191.779953 40.144993,193.179428 
	C40.145050,193.193390 40.175335,193.208160 40.175335,193.208160 
z"/>
<path fill="#B76A6B" opacity="1.000000" stroke="none" 
	d="
M522.592529,97.996559 
	C514.979370,100.042458 506.954376,102.047195 498.491699,104.027695 
	C506.096252,101.987427 514.138428,99.971413 522.592529,97.996559 
z"/>
<path fill="#B76A6B" opacity="1.000000" stroke="none" 
	d="
M540.632935,93.959625 
	C538.901672,95.701134 536.852966,97.378952 534.466431,99.137268 
	C532.545776,98.448853 530.963013,97.679932 528.962036,96.851814 
	C532.467712,95.827057 536.391663,94.861496 540.632935,93.959625 
z"/>
<path fill="#EFF4F1" opacity="1.000000" stroke="none" 
	d="
M53.623890,173.986572 
	C51.803951,177.499191 50.349243,181.755280 45.207230,182.259155 
	C47.750877,179.329712 50.504082,176.662704 53.623890,173.986572 
z"/>
<path fill="#EFF4F1" opacity="1.000000" stroke="none" 
	d="
M60.608353,166.988708 
	C58.893696,168.988190 56.816338,170.992996 54.373959,173.004456 
	C56.087841,171.005417 58.166744,168.999725 60.608353,166.988708 
z"/>
<path fill="#EFF4F1" opacity="1.000000" stroke="none" 
	d="
M32.656555,196.032303 
	C31.586748,197.665237 30.172426,199.330612 28.385818,201.003677 
	C29.446369,199.362488 30.879204,197.713623 32.656555,196.032303 
z"/>
<path fill="#EFF4F1" opacity="1.000000" stroke="none" 
	d="
M71.627991,156.996155 
	C70.581680,158.325226 69.170654,159.658386 67.382034,160.997589 
	C68.424042,159.669189 69.843658,158.334717 71.627991,156.996155 
z"/>
<path fill="#EFF4F1" opacity="1.000000" stroke="none" 
	d="
M66.640793,161.006683 
	C65.895309,162.313324 64.787056,163.622025 63.333832,164.956818 
	C64.085251,163.658188 65.181641,162.333466 66.640793,161.006683 
z"/>
<path fill="#EFF4F1" opacity="1.000000" stroke="none" 
	d="
M74.648453,153.043121 
	C74.239311,154.311386 73.473167,155.615829 72.349564,156.956635 
	C72.758568,155.688416 73.525009,154.383865 74.648453,153.043121 
z"/>
<path fill="#EFF4F1" opacity="1.000000" stroke="none" 
	d="
M62.665161,165.031158 
	C62.532784,165.629364 62.082565,166.269699 61.308712,166.940750 
	C61.439159,166.338745 61.893242,165.706009 62.665161,165.031158 
z"/>
<path fill="#F5EAE8" opacity="1.000000" stroke="none" 
	d="
M12.999836,221.274048 
	C13.839102,220.690079 14.685030,220.380920 15.875190,220.083557 
	C15.385870,220.740219 14.552320,221.385056 13.388733,222.063049 
	C13.041298,221.913727 13.023899,221.731293 12.999836,221.274048 
z"/>
<path fill="#B76A6B" opacity="1.000000" stroke="none" 
	d="
M527.670532,96.821754 
	C527.462219,97.090004 526.910034,97.316505 526.179810,97.345032 
	C526.443298,97.024712 526.885010,96.902359 527.670532,96.821754 
z"/>
<path fill="#B76A6B" opacity="1.000000" stroke="none" 
	d="
M523.666016,97.716019 
	C523.661743,97.934372 523.504272,98.007141 523.192383,98.028046 
	C523.125305,97.779266 523.283569,97.644012 523.666016,97.716019 
z"/>
<path fill="#FBFAFA" opacity="1.000000" stroke="none" 
	d="
M281.241577,155.928146 
	C282.266693,143.082382 283.639099,130.244492 285.243561,117.435646 
	C285.399658,116.189529 286.777863,114.447624 287.947021,114.082199 
	C295.756226,111.641479 303.662720,109.512154 311.969513,107.159409 
	C310.272491,121.433563 308.633789,135.217438 306.988342,149.417007 
	C298.538910,151.869858 290.096252,153.906982 281.241577,155.928146 
z"/>
<path fill="#B76A6B" opacity="1.000000" stroke="none" 
	d="
M530.902832,100.950378 
	C530.269226,101.812294 529.468384,102.402115 528.367065,103.038315 
	C528.956238,102.282562 529.845886,101.480431 530.902832,100.950378 
z"/>
<path fill="#BE5250" opacity="1.000000" stroke="none" 
	d="
M44.048103,189.017822 
	C44.308510,188.823166 44.568913,188.628510 44.908165,188.195206 
	C52.251549,180.681427 59.382118,173.266083 66.813019,166.165039 
	C77.149185,156.287704 87.927704,146.850616 101.396149,141.430588 
	C113.504929,136.557693 121.527168,139.914001 124.856010,152.477295 
	C128.200775,165.100647 129.721832,178.207230 131.994965,191.533188 
	C109.066879,197.451050 86.203720,203.013626 63.298473,208.397110 
	C48.665096,211.836456 33.969471,215.010941 19.127594,217.853607 
	C18.953438,217.403015 18.853762,217.025665 18.853762,217.025665 
	C18.853762,217.025665 19.059387,216.646805 19.086401,216.432892 
	C26.045864,208.751160 32.978317,201.283325 40.043053,193.511826 
	C40.175335,193.208160 40.145050,193.193390 40.440025,193.053467 
	C41.839363,191.614990 42.943733,190.316406 44.048103,189.017822 
z"/>
<path fill="#F5EAE8" opacity="1.000000" stroke="none" 
	d="
M18.667063,217.117859 
	C18.853762,217.025665 18.953438,217.403015 18.910181,217.592667 
	C18.866924,217.782318 18.421612,217.824860 18.198750,217.843231 
	C18.083267,217.597366 18.251425,217.380173 18.667063,217.117859 
z"/>
<path fill="#F5EAE8" opacity="1.000000" stroke="none" 
	d="
M43.662697,189.013367 
	C42.943733,190.316406 41.839363,191.614990 40.439964,193.039520 
	C41.189056,191.779953 42.233173,190.394440 43.662697,189.013367 
z"/>
</svg>