<?xml version="1.0" standalone="no"?>
<!DOCTYPE svg PUBLIC "-//W3C//DTD SVG 20010904//EN"
 "http://www.w3.org/TR/2001/REC-SVG-20010904/DTD/svg10.dtd">
<svg version="1.0" xmlns="http://www.w3.org/2000/svg"
 width="385.000000pt" height="539.000000pt" viewBox="0 0 385.000000 539.000000"
 preserveAspectRatio="xMidYMid meet">
<metadata>
Created by potrace 1.10, written by Peter Selinger 2001-2011
</metadata>
<g transform="translate(0.000000,539.000000) scale(0.100000,-0.100000)"
fill="#000000" stroke="none">
<path d="M1150 5373 c-101 -17 -350 -112 -350 -134 0 -6 -4 -7 -10 -4 -10 6
-120 -61 -120 -74 0 -4 20 -26 44 -49 25 -23 59 -62 77 -87 18 -25 36 -45 41
-45 14 0 9 15 -17 42 -14 15 -25 30 -25 33 0 6 -13 23 -42 56 -10 10 -18 25
-18 32 0 7 -5 18 -12 25 -9 9 -8 15 8 27 37 28 54 15 98 -73 36 -71 47 -102
37 -102 -12 0 -93 129 -87 139 3 4 -1 17 -9 27 -11 15 -16 16 -26 7 -9 -10 -3
-23 28 -65 22 -29 48 -69 58 -88 10 -19 19 -36 20 -38 2 -2 15 4 29 13 l25 17
-31 39 c-23 29 -32 52 -36 91 -2 29 -10 59 -16 67 -8 11 -8 13 3 10 16 -6 23
-16 51 -79 15 -34 19 -38 14 -15 -3 17 -5 48 -4 69 0 22 -4 42 -9 45 -5 4 1
11 14 17 22 11 23 10 12 -8 -8 -13 -9 -21 -1 -26 14 -10 58 -162 49 -170 -4
-4 -10 -1 -12 6 -3 7 -13 16 -22 22 -16 8 -17 6 -13 -16 6 -32 27 -41 50 -22
19 17 162 69 237 87 27 7 51 14 53 16 5 4 -20 47 -35 60 -10 9 -17 62 -14 105
1 12 5 11 16 -4 15 -19 15 -19 15 3 0 23 -22 52 -37 50 -4 -1 -19 -4 -33 -6z
m20 -24 c-9 -16 -8 -37 5 -90 17 -68 15 -106 -5 -94 -5 3 -10 17 -10 31 0 13
-5 24 -10 24 -6 0 -8 -11 -4 -27 5 -23 4 -26 -6 -16 -7 7 -14 23 -16 35 -1 13
-5 36 -8 52 -4 22 0 33 14 43 16 11 18 18 10 33 -8 15 -6 19 13 23 12 2 23 5
25 6 1 0 -2 -8 -8 -20z m-67 -102 c20 -109 20 -110 7 -102 -5 3 -10 16 -10 28
0 20 0 20 -15 1 -13 -18 -14 -17 -15 16 0 20 -7 46 -17 59 -16 23 -15 25 5 42
33 26 28 43 -10 35 -39 -8 -44 -12 -31 -28 11 -14 43 -136 43 -163 0 -13 -4
-14 -22 -4 -24 13 -47 38 -48 52 0 5 7 1 16 -8 21 -20 24 -17 17 18 -4 21 -8
25 -15 15 -7 -10 -11 -9 -23 6 -14 18 -15 18 -15 2 0 -9 4 -25 9 -34 13 -26
22 -82 12 -82 -11 0 -31 46 -32 73 0 21 -1 21 -9 2 -9 -20 -9 -20 -10 0 -1 11
-1 37 0 58 1 21 -4 45 -10 53 -8 9 -9 14 -2 14 6 0 18 3 27 6 15 6 15 4 5 -13
-10 -15 -10 -25 -2 -39 8 -14 12 -15 12 -4 0 13 1 13 10 0 8 -12 10 -12 10 5
0 17 2 18 11 5 8 -11 9 -8 4 15 -4 17 -12 32 -18 34 -14 5 49 29 79 30 18 1
23 -9 37 -92z"/>
<path d="M1143 5265 c0 -22 2 -30 4 -17 2 12 2 30 0 40 -3 9 -5 -1 -4 -23z"/>
<path d="M1301 5373 c-1 -18 10 -43 20 -43 5 0 9 7 9 15 0 22 36 19 60 -5 11
-11 20 -15 20 -10 0 6 6 10 14 10 11 0 26 20 26 35 0 1 -15 0 -33 -5 -18 -4
-48 -5 -65 -2 -22 3 -32 0 -33 -9 0 -8 -4 -5 -9 6 -5 11 -9 15 -9 8z"/>
<path d="M1459 5360 c-1 -8 -3 -54 -4 -102 -2 -79 -1 -88 16 -88 15 0 17 6 12
43 -4 23 -7 60 -7 82 -1 37 1 40 28 40 19 1 31 -5 36 -20 8 -19 9 -18 10 5 1
14 4 20 6 13 3 -7 12 -9 20 -6 8 3 14 -1 14 -11 0 -9 4 -16 9 -16 5 0 16 -3
25 -6 11 -4 16 -1 16 11 0 9 6 15 12 13 7 -3 13 -13 13 -24 0 -10 5 -18 11
-17 8 1 11 -17 11 -53 -1 -45 -3 -53 -13 -40 -7 10 -18 14 -28 10 -11 -4 -16
-1 -16 10 0 21 -28 21 -52 -1 -16 -15 -18 -15 -18 0 0 9 -9 21 -19 27 -27 14
-33 13 -29 -7 1 -10 -1 -24 -5 -31 -11 -16 4 -21 88 -25 39 -2 78 -8 88 -12
15 -6 17 0 17 53 0 60 16 92 40 77 14 -8 13 -45 -1 -45 -7 0 -9 -10 -7 -25 3
-13 2 -22 -2 -20 -4 3 -10 -6 -12 -20 -3 -15 0 -26 9 -29 26 -10 28 -7 26 32
-1 22 6 51 18 70 23 40 25 64 4 56 -8 -4 -15 -1 -15 6 0 7 -8 10 -20 7 -12 -3
-18 -1 -14 5 4 6 -2 8 -16 3 -16 -5 -20 -4 -15 5 5 9 1 10 -15 5 -16 -5 -20
-4 -15 5 5 9 1 10 -15 5 -12 -4 -20 -3 -17 1 5 9 -28 14 -100 17 -18 1 -33 5
-33 9 0 14 -40 3 -41 -12z"/>
<path d="M1240 5360 c-10 -7 -12 -12 -4 -17 6 -5 10 -24 8 -43 -2 -24 0 -30 6
-20 6 8 10 23 10 33 0 9 7 17 15 17 8 0 15 9 15 20 0 22 -25 27 -50 10z"/>
<path d="M1310 5291 c0 -15 3 -48 6 -72 l6 -45 59 0 c58 0 58 0 52 26 -8 34
-12 40 -28 40 -7 0 -15 -10 -17 -22 -4 -28 -28 -36 -28 -9 0 12 -6 21 -15 21
-15 0 -17 7 -18 63 -1 36 -17 35 -17 -2z"/>
<path d="M1507 5297 c-3 -7 -2 -19 3 -26 5 -10 8 -9 13 2 3 7 2 19 -3 26 -5
10 -8 9 -13 -2z"/>
<path d="M1800 5293 c-1 -5 -4 -27 -9 -50 -7 -35 -6 -41 8 -37 9 3 6 -2 -6
-12 -32 -23 -30 -52 5 -59 15 -3 40 -10 56 -15 16 -5 30 -9 31 -7 1 1 -1 33
-5 72 -7 57 -12 73 -34 92 -27 23 -46 29 -46 16z m55 -113 l6 -45 -20 25 c-11
13 -17 28 -14 33 2 4 -2 19 -11 32 -24 37 -19 53 8 25 15 -15 27 -43 31 -70z"/>
<path d="M1247 5218 c7 -51 11 -57 39 -49 18 5 20 10 13 29 -5 12 -15 22 -23
22 -7 0 -13 7 -12 16 0 9 -4 19 -11 21 -8 3 -10 -9 -6 -39z"/>
<path d="M1335 5154 c-5 -1 -40 -5 -78 -9 -37 -4 -65 -10 -62 -14 2 -4 26 -4
52 0 26 4 90 8 142 8 52 1 92 4 88 7 -6 6 -124 13 -142 8z"/>
<path d="M588 5080 c-32 -34 -58 -65 -58 -71 0 -6 -4 -8 -9 -4 -11 6 -26 -33
-17 -42 3 -4 43 -25 88 -48 45 -23 84 -47 86 -53 2 -7 -2 -10 -12 -6 -9 3 -16
1 -16 -5 0 -12 -32 -3 -42 13 -4 6 -15 11 -25 11 -10 0 -18 5 -18 12 0 15 -49
53 -69 53 -10 0 -13 6 -9 18 12 34 -6 6 -41 -65 -20 -39 -36 -82 -36 -95 0
-13 -5 -29 -11 -35 -5 -5 -13 -61 -16 -123 l-6 -113 39 6 c21 4 50 7 64 8 19
1 17 3 -10 8 -27 5 -34 10 -32 25 3 15 -1 18 -23 14 -16 -4 -24 -1 -22 6 2 6
23 13 48 16 30 3 39 7 27 12 -10 4 -18 14 -18 22 0 15 -27 29 -41 20 -5 -3 -9
-12 -9 -21 0 -9 -3 -14 -6 -10 -4 3 -4 17 0 30 5 23 9 24 48 16 56 -11 58 -11
58 0 0 5 -10 11 -22 13 -13 2 -24 11 -26 20 -3 14 1 16 15 11 10 -3 15 -3 12
1 -4 4 -20 11 -38 16 -26 7 -31 6 -32 -8 0 -11 -2 -13 -6 -4 -3 7 -3 19 0 26
4 11 16 11 68 0 71 -15 86 -12 37 6 -27 10 -30 13 -15 19 14 5 10 11 -25 34
-37 24 -39 27 -18 27 14 0 45 -9 69 -20 52 -24 51 -24 51 -5 0 8 -9 15 -20 15
-11 0 -20 5 -20 11 0 5 -4 7 -10 4 -5 -3 -17 3 -27 15 -10 11 -23 20 -31 20
-7 0 -11 4 -8 9 4 5 19 5 39 -2 94 -31 117 -41 136 -58 22 -21 51 -25 51 -8 0
5 15 29 33 51 28 36 29 54 2 48 -3 0 -19 13 -35 30 -15 16 -33 30 -39 30 -6 0
-11 5 -11 10 0 6 -9 20 -20 32 -11 12 -18 24 -15 26 7 7 57 -28 87 -62 15 -17
28 -26 28 -21 0 6 -15 26 -34 45 -25 26 -31 39 -25 52 7 12 3 21 -13 32 -17
12 -18 16 -6 16 15 0 80 -70 127 -138 18 -26 26 -31 37 -21 20 17 17 39 -6 39
-11 0 -20 5 -20 10 0 6 -5 10 -11 10 -17 0 -80 83 -79 105 1 21 -2 25 -17 25
-9 0 -43 -27 -75 -60z m60 -124 c39 -32 72 -60 72 -62 0 -1 -17 -2 -38 0 -41
3 -82 21 -82 36 0 6 -6 10 -12 10 -7 0 -19 4 -27 9 -13 8 -13 12 -1 26 12 15
12 19 -3 30 -9 6 -14 15 -10 18 7 8 2 11 101 -67z"/>
<path d="M2037 5128 c-7 -4 -22 -8 -35 -8 -13 0 -21 -4 -18 -9 3 -5 -11 -8
-31 -6 -21 1 -28 0 -15 -2 12 -2 22 -10 22 -17 0 -7 22 -18 48 -25 27 -6 80
-28 117 -47 38 -18 77 -34 87 -34 9 0 23 -10 29 -22 7 -12 36 -44 65 -71 34
-31 58 -62 65 -86 10 -34 14 -37 47 -37 89 -1 183 -15 225 -33 67 -29 122 -82
126 -123 2 -18 4 -42 5 -53 2 -13 11 -21 29 -23 22 -3 29 -11 40 -50 16 -52
13 -170 -5 -214 -6 -16 -8 -37 -5 -48 5 -21 -8 -37 -17 -21 -3 5 -33 3 -70 -5
-35 -7 -81 -14 -102 -15 -22 -1 -56 -6 -77 -11 -37 -9 -37 -9 -31 -48 4 -25 2
-45 -5 -54 -6 -7 -9 -20 -6 -28 4 -9 -1 -18 -9 -21 -12 -5 -16 0 -17 16 0 16
-2 18 -7 7 -9 -20 -32 -24 -32 -6 0 8 -13 20 -30 28 -16 7 -30 17 -30 21 0 5
-4 5 -10 2 -7 -4 -7 2 -1 19 8 19 6 26 -6 30 -11 4 -14 2 -9 -9 3 -8 1 -15 -4
-15 -6 0 -10 5 -10 11 0 5 -4 8 -9 5 -14 -9 -23 27 -9 36 10 6 10 10 -2 18 -8
5 -21 8 -28 5 -8 -3 -18 -5 -23 -5 -5 0 -9 -4 -9 -9 0 -11 102 -111 113 -111
5 0 26 -13 46 -30 74 -61 71 -57 60 -90 -6 -16 -15 -28 -19 -25 -5 3 -15 -2
-23 -10 -20 -19 -31 -19 -47 0 -7 8 -21 15 -30 15 -10 0 -28 12 -40 28 -12 15
-19 21 -15 15 4 -8 0 -13 -9 -13 -28 0 -46 12 -46 31 0 12 -7 19 -19 19 -11 0
-23 5 -26 11 -4 6 -13 8 -21 5 -9 -3 -14 1 -15 12 0 10 -3 12 -6 5 -3 -10 -10
-10 -24 -2 -11 5 -24 7 -29 4 -6 -4 -9 -1 -8 7 2 7 -3 12 -11 10 -7 -1 -20 3
-27 9 -11 9 -18 9 -26 1 -7 -7 -25 -12 -40 -12 -23 0 -28 4 -28 25 0 17 -4 23
-15 19 -8 -4 -12 -10 -9 -15 3 -5 -11 -9 -31 -9 -22 0 -34 4 -30 10 3 6 -3 10
-14 10 -12 0 -21 -4 -21 -8 0 -4 -9 -8 -21 -9 -15 -1 -19 3 -17 19 4 28 -18
35 -25 8 -7 -26 -42 -26 -60 1 -10 13 -17 17 -22 10 -3 -6 -10 -9 -15 -6 -5 3
-11 1 -15 -5 -3 -5 2 -10 11 -10 10 0 15 -3 11 -6 -3 -4 -27 -3 -52 0 -36 6
-45 11 -45 27 0 10 -5 19 -11 19 -5 0 -8 4 -4 9 3 5 1 12 -5 16 -14 9 -13 -18
2 -33 24 -24 -9 -36 -100 -37 -72 0 -93 -4 -117 -22 -17 -11 -39 -23 -50 -26
-16 -4 -17 -5 -2 -6 23 -1 22 -21 -1 -21 -15 0 -17 -7 -14 -42 2 -24 8 -47 12
-52 5 -5 6 -22 3 -37 -4 -21 -1 -30 12 -35 13 -5 14 -9 3 -15 -10 -7 -10 -11
-1 -17 15 -9 22 -91 8 -91 -5 0 -9 6 -9 14 1 7 -4 11 -12 8 -10 -4 -11 -10 -3
-24 5 -10 13 -19 17 -19 13 0 31 -55 27 -80 -5 -22 -4 -22 4 -5 8 16 10 16 10
4 1 -9 -6 -22 -15 -30 -17 -14 -13 -68 7 -80 6 -3 -21 -10 -60 -16 -55 -7 -71
-6 -71 3 0 7 -5 16 -12 20 -8 5 -9 2 -5 -9 5 -12 1 -17 -13 -17 -10 0 -22 5
-25 10 -3 6 -1 10 6 10 7 0 9 3 5 7 -4 5 -14 -1 -22 -12 -14 -19 -16 -19 -28
-3 -11 15 -15 16 -32 3 -18 -14 -18 -14 6 -16 l25 -1 -25 -7 c-17 -6 -31 -3
-45 9 -11 9 -29 22 -40 30 -17 12 -18 12 -7 0 15 -18 16 -38 1 -23 -6 6 -17 9
-24 7 -18 -7 -29 14 -16 30 9 11 6 15 -14 18 -42 8 -38 -8 12 -51 41 -35 45
-41 26 -41 -13 0 -23 5 -23 10 0 6 -6 10 -12 10 -7 0 -24 17 -37 37 -22 34
-25 35 -31 18 -7 -19 -8 -18 -15 5 -17 59 -37 89 -52 83 -12 -5 -14 -3 -8 7 5
9 4 11 -3 6 -7 -4 -12 -14 -12 -22 0 -8 -4 -13 -8 -10 -18 11 -5 51 19 57 22
6 21 7 -8 8 -41 1 -67 -23 -53 -50 6 -10 7 -19 3 -19 -4 0 -1 -5 7 -11 11 -8
12 -12 3 -16 -7 -2 -13 -13 -13 -24 0 -17 8 -19 59 -19 l58 0 7 -47 c6 -47 6
-47 -44 -91 -120 -105 -217 -315 -254 -551 -15 -89 -15 -129 -6 -284 6 -100
15 -404 20 -677 5 -272 14 -585 20 -695 6 -110 9 -221 5 -248 l-6 -47 95 0
c81 0 94 2 90 15 -4 8 -10 15 -14 15 -4 0 -11 16 -14 35 -5 24 -11 33 -21 28
-18 -6 -20 -43 -3 -43 9 0 9 -3 0 -12 -8 -8 -15 -8 -25 1 -11 9 -12 22 -6 58
10 50 6 64 -13 45 -6 -6 -12 -37 -12 -67 -1 -30 -4 -55 -8 -55 -5 0 -8 7 -8
15 0 8 -3 15 -7 15 -5 0 -8 22 -8 49 0 27 3 47 6 45 9 -5 19 22 19 52 0 24 0
24 36 9 49 -20 57 -19 49 8 -11 36 -27 46 -20 12 5 -23 4 -26 -4 -15 -14 19
-14 67 -1 75 8 5 7 11 -1 21 -14 17 -32 18 -26 2 2 -7 0 -21 -4 -30 -6 -10 -5
-19 1 -23 5 -3 10 -13 10 -22 0 -13 -3 -13 -16 -2 -13 10 -17 10 -25 -2 -9
-14 -12 -28 -10 -41 0 -4 -6 -5 -14 -2 -8 4 -15 13 -15 21 0 8 4 12 9 8 15 -9
25 63 11 80 -13 16 -6 35 14 35 8 0 20 20 27 44 12 41 15 44 33 34 19 -10 20
-10 7 6 -8 10 -23 15 -32 13 -11 -3 -20 2 -23 12 -3 9 -4 -1 -1 -22 2 -24 0
-35 -7 -31 -6 4 -8 -1 -3 -15 3 -12 3 -21 -2 -20 -28 5 -43 -3 -44 -23 -1 -20
-2 -21 -6 -4 -3 12 2 25 13 33 16 12 16 13 1 13 -9 0 -17 5 -17 10 0 6 7 10
16 10 12 0 14 3 6 13 -6 7 -7 18 -3 25 9 14 7 79 -2 88 -3 3 -3 13 0 22 5 11
3 13 -8 7 -8 -4 -11 -5 -7 0 4 4 2 15 -5 24 -10 14 -10 14 4 3 14 -10 17 -9
22 8 6 22 -8 38 -16 18 -3 -8 -6 -6 -6 5 -1 9 2 17 7 17 4 0 8 12 8 28 1 15 5
38 9 51 7 20 5 23 -8 18 -19 -7 -24 17 -7 28 6 4 10 14 8 23 -1 10 4 28 11 41
9 17 10 26 2 34 -8 8 -11 7 -11 -3 0 -13 -2 -13 -10 0 -5 9 -5 19 2 27 5 7 8
20 4 28 -3 9 1 18 9 21 22 9 18 23 -5 17 -11 -3 -20 -1 -20 4 0 15 25 63 33
63 4 0 7 4 7 9 0 4 -12 7 -27 5 -16 -2 -21 -1 -13 2 17 5 45 44 32 44 -4 0
-13 -5 -19 -11 -9 -9 -10 -7 -6 10 3 11 9 21 14 21 19 0 8 20 -17 33 -16 8
-22 17 -16 21 7 4 9 34 6 81 -4 66 -3 74 11 68 11 -4 13 -8 6 -13 -11 -6 -10
-44 0 -55 7 -6 8 12 9 78 0 55 -8 76 -22 56 -6 -9 -7 -3 -3 19 5 23 3 32 -6
32 -9 0 -10 3 -2 11 13 13 5 49 -11 49 -7 0 -6 3 2 9 7 4 14 22 14 39 1 20 6
32 15 32 7 0 13 7 13 15 0 9 -9 15 -21 15 -19 0 -21 4 -15 45 4 27 3 53 -4 65
-17 31 -2 39 21 11 13 -16 19 -19 19 -8 0 8 -7 18 -16 21 -13 5 -14 9 -4 21 7
9 10 18 6 22 -3 4 -13 -2 -21 -13 -13 -17 -13 -15 -10 29 3 29 1 47 -6 47 -6
0 -7 5 -2 13 4 6 8 30 9 52 0 23 5 39 11 38 6 -1 9 6 6 17 -3 11 -9 17 -15 14
-9 -6 -3 31 13 74 5 12 5 22 2 22 -4 0 -2 5 5 12 7 7 12 22 12 34 0 12 7 34
14 50 8 15 13 31 11 35 -3 4 2 12 10 19 7 6 11 18 8 26 -3 9 4 28 16 44 11 16
21 34 21 39 0 6 18 29 41 52 24 25 38 47 35 56 -8 21 4 39 15 22 7 -11 13 -9
31 10 l23 23 -30 -6 -30 -6 24 20 c27 23 41 26 41 8 1 -7 10 -2 21 12 20 23
20 24 2 31 -15 6 -15 8 -3 12 61 23 262 44 363 38 29 -2 47 1 47 8 0 15 35 14
73 -2 18 -8 57 -22 87 -31 117 -37 259 -102 340 -154 47 -30 88 -59 91 -64 4
-6 17 -7 30 -3 13 3 19 3 13 -2 -12 -9 -14 -53 -2 -53 4 0 8 4 8 9 0 11 23 0
88 -42 23 -15 42 -34 42 -43 0 -8 13 -23 30 -32 16 -9 28 -21 27 -27 -2 -5 11
-20 29 -32 19 -13 37 -38 44 -58 7 -20 15 -34 18 -31 7 7 58 -66 54 -78 -3 -9
17 -53 41 -90 66 -105 117 -179 117 -171 1 14 59 -97 60 -113 0 -11 -3 -11
-18 0 -18 13 -89 97 -125 148 -9 14 -52 75 -95 136 -125 182 -177 246 -180
228 -2 -8 3 -23 12 -33 9 -10 16 -23 16 -30 0 -7 4 -10 9 -7 5 3 12 -5 15 -19
4 -14 11 -25 16 -25 6 0 10 -15 11 -32 0 -18 3 -27 6 -20 8 19 23 14 23 -8 0
-11 -6 -20 -14 -20 -7 0 -20 -7 -27 -16 -12 -15 -11 -16 10 -9 16 5 21 4 17
-4 -4 -6 -2 -11 4 -11 6 0 10 8 8 18 -2 10 3 17 12 17 8 0 14 -8 14 -17 -1
-10 3 -18 8 -18 5 0 8 -6 5 -12 -2 -7 9 -21 25 -30 15 -10 27 -21 26 -26 -3
-9 32 -58 74 -105 23 -25 26 -33 15 -46 -11 -14 -10 -14 6 -2 14 11 21 11 29
3 7 -7 9 -12 6 -12 -4 0 7 -13 23 -29 16 -16 29 -39 29 -50 0 -20 -32 -46 -43
-35 -3 3 -32 -2 -65 -11 -33 -10 -79 -15 -101 -13 -23 2 -42 -1 -44 -6 -2 -5
-9 -6 -15 -2 -8 5 -10 21 -6 47 5 32 2 46 -18 77 -13 20 -33 62 -43 92 -10 30
-20 62 -23 70 -3 8 -6 20 -6 25 -1 6 -14 28 -31 49 -20 26 -26 41 -17 44 6 2
12 9 12 14 0 6 -3 9 -6 5 -3 -3 -14 2 -23 11 -29 30 -46 74 -46 122 0 34 -4
47 -14 46 -8 -1 -16 5 -18 12 -3 8 2 10 14 7 11 -4 9 -1 -4 6 -13 7 -23 17
-23 24 0 7 -9 20 -21 31 -17 16 -22 16 -29 4 -13 -21 -12 -30 4 -30 16 0 48
-45 45 -63 -2 -13 6 -36 45 -120 37 -83 102 -237 127 -304 13 -34 27 -60 31
-57 4 3 14 -12 23 -32 21 -50 19 -55 -6 -15 -26 43 -32 36 -15 -20 8 -24 16
-76 19 -114 3 -39 10 -86 15 -105 5 -23 5 -41 -2 -53 -8 -13 -8 -20 1 -25 12
-8 13 -29 0 -49 -4 -6 -2 -13 4 -15 16 -5 14 -114 -2 -135 -13 -16 -12 -17 4
-4 15 12 17 11 17 -18 0 -17 -4 -31 -10 -31 -5 0 -13 0 -17 -1 -5 0 -11 10
-15 23 -4 17 -6 12 -5 -14 2 -42 1 -42 27 -28 17 9 18 6 18 -35 0 -27 -4 -43
-10 -39 -5 3 -7 12 -4 20 3 9 -2 14 -14 14 -11 0 -20 -4 -20 -10 0 -5 4 -10 9
-10 6 0 8 -9 6 -19 -2 -13 3 -21 17 -24 17 -5 19 -11 13 -34 -3 -15 -12 -31
-18 -35 -8 -5 -6 -8 6 -8 11 0 17 -8 18 -22 0 -13 2 -37 5 -55 2 -21 -4 -45
-17 -68 -12 -19 -17 -35 -12 -35 4 0 14 -12 20 -27 11 -22 10 -29 -2 -43 -8
-9 -12 -20 -8 -24 13 -12 14 -96 3 -132 -7 -21 -8 -39 -3 -47 12 -15 15 -107
4 -107 -4 0 -8 -10 -7 -23 1 -15 7 -21 19 -19 11 2 15 -2 11 -13 -3 -8 -10
-15 -14 -15 -5 0 -7 -10 -4 -22 5 -27 -14 -78 -28 -78 -6 0 -7 11 -4 24 6 24
-17 56 -31 42 -3 -3 -2 -6 4 -6 6 0 11 -11 11 -25 0 -26 -22 -34 -32 -12 -4 8
-8 9 -11 1 -3 -6 -13 -20 -21 -30 -15 -18 -15 -18 -9 9 4 19 1 27 -9 27 -10 0
-14 14 -14 51 -1 28 -3 53 -6 56 -2 3 4 22 15 44 22 41 17 73 -7 42 -7 -10
-14 -26 -14 -35 0 -10 -3 -18 -7 -18 -12 0 -12 54 -1 61 6 4 12 37 14 74 3 46
1 64 -7 60 -6 -4 -8 -13 -5 -21 3 -7 1 -16 -3 -18 -7 -5 -15 88 -25 304 -2 36
-4 65 -5 65 -2 0 -4 23 -5 50 -8 149 -19 261 -26 270 -7 9 -24 94 -34 172 -1
13 -6 26 -9 30 -4 3 -7 18 -7 32 1 25 1 25 15 7 8 -11 15 -15 15 -9 0 27 -14
43 -39 43 -25 1 -25 1 -6 16 20 15 20 15 -2 20 -14 4 -20 11 -16 21 6 14 -23
79 -43 98 -6 6 -24 36 -40 67 -16 32 -33 58 -37 58 -4 0 -11 9 -15 19 -9 25
-114 150 -126 150 -5 1 -17 7 -25 15 -28 25 -154 83 -196 91 -22 4 -46 12 -53
18 -22 18 -201 9 -226 -12 -6 -5 -25 -11 -41 -13 -17 -2 -41 -15 -55 -31 -14
-15 -37 -33 -50 -40 -14 -7 -34 -27 -45 -44 -11 -18 -24 -32 -30 -33 -5 0 -11
-11 -11 -24 -1 -17 2 -23 12 -19 7 3 12 9 11 15 -1 5 7 15 17 21 11 7 36 29
55 50 21 22 43 37 58 37 12 0 23 -2 23 -5 0 -4 -27 -34 -60 -68 -33 -34 -60
-69 -59 -77 0 -10 2 -11 6 -2 2 6 9 12 14 12 12 0 12 -32 0 -62 -23 -59 -41
-134 -41 -173 0 -26 -6 -47 -15 -55 -8 -7 -15 -19 -15 -28 0 -30 37 33 45 75
4 24 11 43 17 43 6 0 7 -11 3 -28 -4 -15 -11 -52 -16 -82 -5 -30 -14 -88 -21
-128 -10 -61 -10 -75 2 -82 10 -6 11 -20 5 -57 -4 -26 -7 -76 -6 -110 1 -33
-2 -64 -8 -67 -5 -4 -6 -18 -2 -34 7 -28 6 -140 -3 -224 -3 -27 -1 -48 5 -48
5 0 9 -7 9 -15 0 -8 -4 -15 -10 -15 -5 0 -9 -33 -9 -75 0 -63 3 -75 17 -75 13
0 14 -2 4 -9 -8 -4 -14 -29 -15 -55 -1 -25 -5 -46 -9 -46 -5 0 -7 -10 -7 -22
1 -17 2 -19 6 -5 4 17 23 24 23 9 0 -5 -7 -23 -16 -41 -12 -25 -13 -35 -4 -46
12 -14 7 -126 -7 -162 -10 -25 -25 -13 -22 20 4 62 -1 108 -11 102 -6 -3 -10
4 -10 17 0 19 2 20 11 8 9 -12 10 -11 4 5 -3 11 -9 34 -12 50 -3 23 -2 26 6
15 7 -11 10 39 10 173 0 104 -2 187 -4 185 -2 -2 -6 -34 -9 -71 -6 -70 -25
-127 -26 -77 0 14 -5 32 -10 40 -7 11 -10 4 -10 -27 0 -31 4 -43 14 -43 15 0
26 -47 30 -124 3 -62 -12 -39 -19 29 -4 36 -11 65 -15 65 -14 0 -18 -39 -10
-110 4 -39 6 -80 3 -91 -3 -10 -1 -19 5 -19 7 0 9 -18 5 -51 -5 -46 -4 -50 13
-47 14 2 20 -4 23 -22 3 -25 3 -25 -18 -6 l-21 19 0 -41 0 -42 59 0 58 0 1
238 c2 432 21 1033 37 1170 16 137 51 274 85 341 18 37 23 39 107 60 104 25
149 26 226 6 153 -40 274 -137 365 -291 47 -80 104 -229 126 -329 24 -110 54
-333 71 -530 8 -99 18 -192 21 -206 2 -14 5 -123 6 -242 l1 -217 119 0 118 0
0 179 c0 163 -2 180 -17 184 -16 4 -16 5 1 6 18 1 19 12 12 364 -3 199 -10
438 -16 532 -5 93 -8 170 -7 170 1 1 38 7 82 13 44 7 94 15 110 18 28 5 32 2
43 -30 15 -40 13 -40 63 -26 59 16 64 31 35 87 -14 26 -26 53 -26 59 0 26 -91
216 -136 285 -76 117 -198 282 -225 307 -9 8 -29 26 -43 41 -15 14 -37 35 -49
46 -105 97 -126 115 -139 115 -8 0 -62 34 -121 76 -62 44 -112 72 -118 68 -7
-4 -9 -3 -6 3 7 12 -47 35 -57 26 -3 -4 -6 -1 -6 5 0 7 -3 11 -7 10 -5 0 -35
11 -68 27 -33 15 -77 30 -97 32 -33 5 -37 9 -40 37 -2 17 0 46 4 64 3 19 2 47
-4 64 -6 16 -8 47 -4 68 4 23 2 41 -5 45 -6 4 -9 36 -8 79 1 39 -1 98 -5 132
l-8 61 53 6 c98 12 362 7 464 -8 185 -28 370 -86 532 -168 40 -21 53 -24 65
-14 20 15 47 97 55 164 3 29 9 53 12 53 103 4 258 23 267 32 17 18 46 200 45
284 -1 153 -84 294 -211 359 -21 11 -68 21 -120 24 l-84 6 -9 35 c-31 125 -54
174 -114 232 -41 40 -146 93 -163 83 -5 -3 -10 -3 -10 2 0 10 -108 11 -123 1z
m156 -50 c10 -5 15 -12 13 -17 -3 -4 7 -6 22 -4 45 6 111 -65 118 -126 5 -44
-10 -57 -20 -16 -4 15 -16 27 -31 31 -14 3 -36 19 -49 34 -13 16 -41 37 -62
49 -43 23 -74 45 -74 54 0 9 63 5 83 -5z m570 -914 c-5 -13 -2 -15 15 -9 16 5
22 2 22 -9 0 -20 -34 -28 -128 -30 -42 0 -80 -5 -84 -11 -5 -6 -8 -5 -8 3 0 6
-7 12 -15 12 -18 0 -20 19 -2 21 6 1 33 1 58 -1 31 -1 51 4 62 14 17 17 32 22
22 7 -11 -19 13 -20 30 -1 22 24 37 26 28 4z m-379 -1455 c20 -34 35 -63 33
-66 -6 -5 -21 15 -57 81 -42 76 -23 65 24 -15z m-1096 50 c18 -1 -30 -15 -86
-25 -19 -3 -52 -12 -73 -19 -22 -8 -37 -10 -34 -5 13 21 136 61 163 54 8 -2
21 -4 30 -5z m1251 -385 c13 -30 14 -37 2 -30 -5 4 -11 0 -14 -6 -7 -19 -14
-7 -20 34 -6 43 13 44 32 2z m-489 -1379 c0 -8 -4 -15 -9 -15 -5 0 -7 -10 -4
-22 4 -18 3 -20 -6 -12 -7 7 -9 22 -5 38 7 28 24 36 24 11z"/>
<path d="M1770 5111 c8 -6 26 -11 40 -11 14 0 38 -7 54 -15 31 -16 56 -20 56
-7 0 9 -66 28 -125 37 -30 5 -36 4 -25 -4z"/>
<path d="M1625 5090 c-27 -7 -28 -8 -5 -8 14 0 34 3 45 8 25 11 2 11 -40 0z"/>
<path d="M1275 5077 c-9 -5 -23 -6 -31 -3 -8 3 -14 2 -14 -3 0 -5 -12 -11 -27
-14 -16 -3 -44 -8 -63 -12 -19 -4 -37 -10 -40 -14 -3 -4 -25 -13 -50 -21 -25
-8 -51 -20 -58 -27 -7 -7 -20 -13 -28 -13 -7 0 -19 -9 -26 -20 -7 -11 -16 -20
-21 -20 -4 0 -5 5 -2 10 3 6 1 10 -5 10 -7 0 -10 -6 -7 -14 3 -8 0 -20 -8 -26
-10 -8 -14 -8 -18 2 -4 10 -6 10 -6 1 -1 -7 -5 -13 -10 -13 -10 0 -75 -61 -77
-72 -1 -5 -2 -12 -3 -18 0 -5 -8 -10 -16 -10 -14 0 -20 -12 -16 -34 1 -5 -5
-16 -13 -25 -19 -21 -47 -91 -41 -101 3 -5 1 -10 -4 -12 -5 -1 -12 -30 -16
-63 -3 -33 -14 -69 -23 -80 -13 -15 -13 -17 -2 -8 14 10 16 8 15 -15 -1 -15 3
-33 8 -39 6 -9 5 -13 -4 -13 -12 0 -12 -2 0 -9 9 -6 10 -11 2 -15 -8 -5 -7
-15 3 -34 9 -17 11 -35 5 -49 -6 -15 -4 -23 8 -27 13 -5 13 -9 2 -22 -10 -13
-10 -17 2 -24 16 -11 22 -57 8 -65 -5 -4 -9 -21 -8 -38 1 -33 3 -30 13 16 8
33 26 36 26 5 0 -13 7 -32 15 -42 8 -11 13 -28 9 -38 -3 -10 -1 -18 5 -18 6 0
26 -31 45 -70 19 -38 31 -70 27 -70 -3 0 -22 4 -41 10 -24 7 -37 7 -45 -2 -7
-8 -6 -9 5 -3 10 5 9 1 -3 -11 -18 -19 -19 -18 -46 12 -15 16 -33 28 -39 26
-7 -2 -12 4 -12 14 0 9 -8 23 -17 30 -17 13 -17 15 2 30 19 16 19 16 -7 12
-32 -6 -42 11 -27 49 10 27 10 27 -11 8 -14 -13 -24 -15 -31 -8 -7 7 0 17 23
32 30 21 31 22 8 18 -14 -2 -33 -8 -44 -12 -32 -14 -13 18 24 39 24 14 35 17
38 8 2 -7 11 -19 19 -27 12 -13 13 -18 3 -31 -15 -17 -7 -29 14 -21 9 4 13 14
9 29 -3 17 -2 19 5 9 13 -18 26 4 14 25 -6 11 -11 13 -16 5 -10 -16 -26 -14
-26 4 0 8 6 15 14 15 9 0 12 7 9 20 -6 24 -10 25 -30 5 -8 -9 -17 -14 -19 -12
-8 8 16 58 25 53 5 -4 7 3 4 14 -7 25 -20 26 -26 3 -3 -12 -5 -8 -6 9 -1 34
-17 44 -30 20 -7 -13 -7 -22 1 -30 15 -15 -1 -35 -23 -29 -11 3 -26 -1 -34 -9
-10 -10 -20 -12 -31 -6 -13 7 -8 13 28 31 38 19 40 21 13 17 -16 -2 -38 0 -49
6 -13 7 -21 6 -27 -3 -7 -11 -9 -11 -9 2 0 27 50 41 173 49 4 0 7 4 7 10 0 5
-7 7 -16 3 -14 -5 -16 -1 -12 25 2 18 0 32 -5 32 -5 0 -6 12 -3 28 6 28 -8 62
-20 49 -13 -12 -14 -41 -2 -48 18 -12 -24 -45 -60 -47 -17 -1 -32 3 -32 8 0 6
-4 9 -9 6 -5 -4 -20 -2 -33 3 l-23 9 28 11 c16 6 40 11 55 11 15 0 34 5 42 10
10 6 3 8 -23 3 -25 -4 -37 -2 -37 6 0 7 -4 10 -9 6 -5 -3 -12 -1 -16 5 -3 5
-15 10 -26 10 -10 0 -19 4 -19 9 0 14 82 24 140 19 27 -3 47 -1 44 4 -3 4 1 8
8 9 7 0 2 4 -10 10 -13 5 -29 6 -34 2 -6 -3 -26 -8 -45 -10 -24 -3 -33 0 -33
12 0 11 -11 15 -43 15 -50 0 -47 14 -26 -140 6 -47 14 -89 18 -95 4 -5 14 -30
21 -55 12 -40 35 -86 50 -100 12 -12 49 -69 68 -105 28 -55 143 -175 168 -175
10 0 39 9 63 20 24 11 49 20 56 20 15 0 25 -59 27 -168 2 -45 6 -71 13 -68 5
2 9 8 8 14 -2 6 4 27 12 46 9 21 11 36 5 36 -5 0 -10 5 -10 11 0 5 4 8 10 4 5
-3 18 12 30 35 11 22 16 40 10 40 -5 0 -10 -7 -10 -15 0 -21 -30 -31 -40 -14
-8 13 22 43 45 44 24 2 46 19 41 31 -3 8 -2 14 2 14 4 0 15 12 25 25 15 22 16
25 2 25 -8 0 -15 -6 -15 -14 0 -19 -82 -75 -87 -58 -3 6 -14 12 -24 12 -11 0
-18 4 -15 9 3 4 -3 16 -14 26 -11 10 -24 34 -31 54 -6 20 -17 43 -25 51 -25
29 -63 125 -88 223 -21 81 -23 101 -13 118 10 16 9 21 -1 28 -15 9 -19 98 -8
175 10 65 55 176 72 176 8 0 11 6 8 15 -4 9 2 18 17 24 13 5 18 10 10 10 -10
1 -5 11 14 31 46 48 106 85 134 83 23 -2 23 -2 6 6 -18 7 -17 10 15 30 32 19
53 26 73 22 5 -1 6 3 3 8 -9 13 182 74 211 66 16 -4 22 -2 18 5 -9 15 167 13
184 -2 9 -8 11 -9 7 -1 -6 12 -1 12 179 -12 61 -8 105 -10 115 -5 13 8 13 10
0 11 -8 1 -18 1 -22 0 -4 0 -65 8 -137 19 -71 11 -137 17 -147 13 -10 -3 -15
-2 -12 3 8 12 -146 13 -167 1z m-695 -726 c0 -18 -29 -31 -78 -34 -29 -2 -57
0 -64 5 -7 4 -8 8 -3 8 6 1 33 7 60 15 59 16 85 18 85 6z m20 -141 c0 -5 -7
-13 -16 -18 -9 -5 -15 -13 -14 -17 3 -16 -35 -23 -53 -10 -15 11 -15 14 -3 24
13 11 57 28 79 30 4 1 7 -3 7 -9z"/>
<path d="M1700 5080 c-13 -9 -13 -10 0 -10 8 0 22 5 30 10 13 9 13 10 0 10 -8
0 -22 -5 -30 -10z"/>
<path d="M1780 5070 l-35 -7 32 -2 c17 0 35 4 38 9 3 6 5 9 3 9 -2 -1 -19 -5
-38 -9z"/>
<path d="M1952 5047 c-4 -37 -24 -46 -79 -33 -28 6 -55 14 -59 19 -11 11 -24
8 -21 -5 4 -20 107 -49 130 -37 24 13 38 1 14 -13 -14 -8 -16 -13 -6 -24 9
-11 8 -14 -4 -14 -18 0 -12 -36 8 -44 16 -6 29 76 22 134 -2 19 -5 27 -5 17z"/>
<path d="M1393 5024 c4 -8 -2 -12 -16 -11 -21 1 -78 -7 -141 -19 -16 -3 -37
-9 -47 -14 -31 -17 -41 -13 -29 13 11 21 11 21 -4 3 -27 -33 -3 -41 66 -21 35
10 97 18 140 19 60 1 78 5 87 18 10 15 8 16 -13 8 -16 -6 -28 -5 -36 3 -9 8
-11 9 -7 1z"/>
<path d="M1520 5023 c-8 -3 -26 -10 -39 -15 -13 -5 -21 -11 -18 -14 6 -6 77
22 77 30 0 4 -1 6 -2 5 -2 0 -10 -3 -18 -6z"/>
<path d="M1548 5007 c-16 -6 -28 -13 -28 -16 0 -14 93 -10 118 4 27 16 27 16
2 10 -31 -9 -91 -16 -67 -9 9 3 17 10 17 15 0 11 -6 10 -42 -4z"/>
<path d="M1660 4984 c-30 -11 -32 -13 -10 -13 14 0 36 6 50 14 31 18 7 17 -40
-1z"/>
<path d="M1725 4979 c-22 -10 -32 -19 -22 -19 18 0 77 27 77 35 0 8 -13 4 -55
-16z"/>
<path d="M1274 4968 c-3 -4 38 -8 90 -8 107 0 318 -26 327 -41 3 -5 16 -11 28
-14 13 -2 30 -12 38 -22 16 -19 16 -18 -3 35 -4 9 7 1 24 -18 17 -19 31 -30
32 -23 0 13 40 5 40 -8 0 -5 -11 -11 -25 -15 -14 -3 -25 -10 -25 -15 0 -15 20
-10 46 10 25 20 62 18 77 -3 5 -8 10 -6 17 4 15 23 12 33 -10 27 -11 -3 -23
-1 -26 4 -3 5 -16 9 -29 9 -13 0 -26 4 -29 9 -3 4 -18 6 -32 3 -17 -3 -25 -1
-21 5 8 13 -27 25 -70 25 -18 1 -30 5 -27 10 3 4 2 8 -3 7 -8 -2 -83 6 -153
17 -60 10 -260 11 -266 2z"/>
<path d="M1776 4966 l-29 -13 35 -7 c34 -6 88 6 88 20 0 6 -29 1 -67 -12 -16
-6 -16 -5 2 9 24 19 11 20 -29 3z"/>
<path d="M720 4962 c0 -14 39 -46 47 -39 3 4 -2 16 -12 27 -19 21 -35 26 -35
12z"/>
<path d="M1036 4944 c-10 -25 1 -29 14 -5 6 12 7 21 1 21 -5 0 -12 -7 -15 -16z"/>
<path d="M1215 4951 c-6 -6 -31 -12 -56 -15 -25 -3 -59 -13 -77 -21 -17 -9
-40 -17 -51 -18 -11 0 -18 -4 -15 -8 5 -8 -21 -31 -28 -24 -3 3 -13 -4 -23
-15 -10 -11 -23 -20 -28 -20 -15 0 -57 -49 -57 -66 0 -9 -8 -18 -17 -21 -20
-5 -63 -66 -63 -89 0 -8 -7 -17 -15 -20 -10 -4 -12 -11 -5 -23 6 -13 4 -22
-10 -33 -10 -9 -21 -14 -24 -11 -3 4 -6 1 -6 -6 0 -8 8 -11 18 -9 14 4 18 0
17 -16 -1 -15 -8 -21 -25 -20 -19 1 -20 -1 -8 -10 8 -6 13 -16 11 -23 -3 -7 3
-9 16 -6 12 3 21 13 22 22 0 9 2 29 2 44 1 19 11 34 29 45 25 15 28 15 46 -1
20 -18 61 -15 77 6 6 7 25 19 42 26 18 7 42 22 55 32 12 11 28 17 36 14 17 -6
63 5 57 14 -2 4 20 6 49 3 62 -5 74 6 46 39 -14 18 -19 20 -20 9 0 -9 5 -21
12 -28 8 -8 8 -12 1 -12 -6 0 -16 7 -23 15 -9 11 -17 12 -30 5 -30 -16 -49
-12 -47 10 1 19 13 25 50 22 20 -2 21 2 7 29 -6 10 -18 19 -26 19 -20 0 -85
-30 -102 -47 -21 -20 -1 -15 47 12 47 28 55 30 46 15 -11 -18 -99 -56 -122
-52 -19 3 -20 7 -12 34 10 38 5 48 -26 48 -13 0 -27 5 -30 10 -8 13 36 13 71
0 15 -6 29 -8 32 -5 10 10 -8 19 -50 24 l-41 6 69 33 c38 19 81 40 97 48 15 7
27 9 27 4 0 -15 26 -12 40 5 7 8 21 15 31 15 10 0 21 5 24 10 8 13 -28 13 -40
1z m-216 -173 c0 -7 -4 -22 -9 -33 -8 -19 -9 -19 -9 3 -1 26 -23 38 -48 26
-16 -7 -15 -8 5 -11 17 -3 22 -11 22 -34 0 -25 3 -28 18 -21 26 14 44 4 32
-18 -7 -13 -6 -20 2 -22 7 -3 5 -7 -6 -11 -10 -4 -15 -3 -11 3 7 12 -15 13
-31 2 -6 -4 -13 -15 -17 -24 -4 -13 -2 -16 11 -11 10 3 8 -1 -6 -12 -23 -17
-59 -14 -48 4 8 13 -4 42 -15 35 -5 -3 -9 0 -9 5 0 6 6 11 13 12 9 0 9 2 0 5
-6 3 -24 -3 -39 -13 l-28 -18 24 44 c14 24 33 49 43 55 9 6 17 19 17 28 0 15
9 18 45 18 30 0 45 -4 44 -12z m110 -65 c-11 -13 -11 -17 -1 -20 6 -3 10 -8 7
-13 -5 -8 -55 10 -55 20 0 6 39 27 54 29 5 0 2 -6 -5 -16z m-229 -74 c0 -5 3
-8 8 -6 4 3 8 -8 9 -23 2 -23 -1 -28 -13 -23 -9 3 -19 14 -23 25 -7 19 -8 19
-34 -2 -15 -12 -27 -18 -27 -13 1 30 80 73 80 42z"/>
<path d="M896 4722 c-4 -7 0 -19 8 -28 9 -8 16 -22 16 -30 0 -8 5 -14 10 -14
6 0 10 12 10 26 0 14 -4 23 -10 19 -6 -3 -14 4 -18 16 -6 15 -11 18 -16 11z"/>
<path d="M1390 4943 c0 -5 9 -14 20 -21 11 -7 20 -8 20 -2 0 5 -9 14 -20 20
-11 6 -20 7 -20 3z"/>
<path d="M790 4925 c-7 -8 -8 -15 -2 -15 5 0 15 7 22 15 7 8 8 15 2 15 -5 0
-15 -7 -22 -15z"/>
<path d="M2180 4931 c0 -4 9 -14 20 -23 20 -18 37 -7 23 14 -8 14 -43 21 -43
9z"/>
<path d="M1280 4901 c13 -10 13 -11 0 -11 -8 0 -26 -12 -39 -25 -22 -24 -23
-25 -2 -25 11 0 25 10 32 22 10 19 12 19 21 5 10 -19 43 -23 54 -6 3 6 17 9
31 6 13 -2 21 -2 18 1 -2 3 0 11 7 19 6 7 8 17 4 20 -4 4 -11 1 -16 -7 -5 -8
-12 -11 -16 -7 -4 4 -16 0 -26 -10 -10 -9 -18 -11 -18 -5 0 5 -9 8 -20 5 -14
-4 -20 -1 -18 7 2 7 -4 15 -12 17 -13 4 -13 3 0 -6z"/>
<path d="M1450 4895 c-7 -8 -20 -15 -29 -16 -9 0 -2 -5 14 -10 31 -9 85 5 85
22 0 13 -14 11 -36 -6 -28 -21 -40 -18 -19 5 10 11 13 20 8 20 -6 0 -16 -7
-23 -15z"/>
<path d="M1541 4893 c-24 -26 -5 -36 23 -11 24 20 25 24 9 24 -11 0 -25 -6
-32 -13z"/>
<path d="M1154 4885 c14 -11 16 -15 5 -15 -19 -1 -63 -70 -44 -70 8 0 18 6 22
13 4 7 18 14 31 14 39 1 42 3 42 18 0 8 -4 15 -10 15 -5 0 -10 -4 -10 -9 0 -5
-9 -11 -20 -14 -24 -6 -25 1 -3 25 15 17 15 20 3 28 -24 15 -37 11 -16 -5z"/>
<path d="M1645 4880 c-16 -18 -16 -18 4 -13 25 6 35 19 22 27 -4 3 -16 -3 -26
-14z"/>
<path d="M2070 4890 c0 -3 10 -11 22 -19 21 -13 25 -11 31 16 1 5 -10 8 -25 8
-16 1 -28 -2 -28 -5z"/>
<path d="M2170 4893 c8 -4 21 -13 28 -22 12 -14 13 -14 8 2 -3 10 -6 21 -6 23
0 2 -10 4 -22 3 -16 0 -18 -2 -8 -6z"/>
<path d="M1587 4883 c-10 -9 -9 -23 1 -23 5 0 17 7 28 15 19 14 19 14 -2 15
-11 0 -24 -3 -27 -7z"/>
<path d="M1080 4876 c0 -2 11 -6 25 -8 14 -3 25 -1 25 3 0 5 -11 9 -25 9 -14
0 -25 -2 -25 -4z"/>
<path d="M1682 4860 c-29 -28 -28 -34 3 -14 14 9 25 20 25 25 0 13 -4 11 -28
-11z"/>
<path d="M1734 4859 c-3 -6 -2 -15 4 -21 11 -11 52 6 52 23 0 5 -12 1 -27 -8
-26 -17 -27 -17 -20 0 7 19 2 23 -9 6z"/>
<path d="M2150 4858 c0 -10 9 -22 19 -28 26 -13 31 -13 31 5 0 13 -6 17 -26
14 -4 0 -11 5 -15 13 -7 10 -9 9 -9 -4z"/>
<path d="M1053 4847 c15 -6 27 -15 27 -20 0 -17 -21 -47 -29 -42 -5 2 -14 -2
-21 -10 -16 -19 -9 -19 37 0 20 8 33 18 30 21 -3 3 -2 16 3 29 10 26 -3 36
-48 34 l-27 -1 28 -11z"/>
<path d="M1341 4827 c-9 -12 -9 -16 1 -20 7 -3 1 -5 -14 -4 -15 1 -24 5 -21
11 4 5 -5 6 -21 2 -21 -5 -26 -4 -20 6 4 8 3 10 -2 5 -5 -5 -9 -16 -9 -24 0
-9 -6 -18 -13 -20 -7 -3 -10 1 -6 11 7 19 3 20 -30 5 -15 -7 -22 -17 -19 -26
4 -11 8 -10 18 4 13 17 13 17 12 0 -1 -13 9 -23 33 -31 19 -7 44 -17 54 -21
33 -14 7 15 -28 31 -28 14 -29 15 -4 10 15 -4 28 -1 30 5 4 12 256 17 318 6
19 -3 44 -6 55 -6 27 -1 59 -53 43 -69 -17 -17 -27 -15 -22 6 3 11 -5 23 -26
34 -34 19 -38 17 -14 -7 13 -13 14 -18 3 -32 -12 -14 -14 -13 -19 8 -7 30 -40
39 -40 11 0 -10 -11 -24 -25 -30 -30 -14 -34 2 -5 18 20 11 20 12 -9 35 -36
31 -47 32 -27 3 17 -23 8 -51 -19 -62 -13 -5 -13 -2 1 19 15 22 15 25 1 25 -9
0 -18 -8 -21 -18 -3 -10 -15 -18 -27 -19 -20 -2 -20 -1 -4 18 16 17 16 19 2
19 -9 0 -19 -4 -22 -10 -3 -5 -15 -15 -27 -21 -18 -9 -19 -8 -13 10 5 16 2 21
-13 21 -11 0 -25 7 -32 15 -7 8 -18 15 -24 15 -6 0 1 -12 17 -25 32 -29 35
-45 6 -45 -12 0 -19 -5 -16 -12 3 -10 64 -13 266 -12 144 1 265 5 269 8 11 11
-21 26 -42 20 -15 -5 -18 -3 -13 10 5 12 -1 19 -18 26 -40 15 -30 31 18 27 24
-2 49 -7 56 -11 15 -9 16 -8 25 22 6 18 3 22 -13 22 -11 0 -23 -4 -26 -10 -9
-15 -25 -12 -19 4 4 11 -7 15 -44 17 -28 2 -48 1 -46 -2 2 -4 -3 -10 -12 -13
-11 -4 -15 -2 -11 7 3 8 -4 14 -18 15 -13 1 -26 -5 -29 -13 -8 -23 -25 -18
-36 10 -10 26 -30 34 -30 13 0 -8 -3 -9 -8 -3 -11 15 -54 14 -70 -1 -7 -8 -19
-14 -25 -14 -8 0 -8 3 1 9 24 15 -10 27 -89 30 -57 2 -78 -1 -88 -12z m426
-79 c23 -22 31 -48 14 -48 -12 0 -71 52 -71 62 0 16 34 7 57 -14z"/>
<path d="M2145 4820 c-15 -24 -13 -48 5 -53 18 -5 30 10 30 38 0 16 -27 28
-35 15z"/>
<path d="M587 4808 c-2 -7 7 -23 22 -36 23 -20 23 -22 6 -20 -11 2 -25 -3 -32
-12 -11 -13 -12 -13 -13 2 0 24 -20 33 -20 10 0 -12 11 -24 31 -32 l30 -13
-30 -20 c-17 -10 -40 -17 -51 -14 -31 8 -23 -3 10 -15 34 -11 37 -39 5 -49
-19 -6 -18 -7 5 -16 22 -9 25 -8 28 11 2 11 12 40 23 63 10 24 19 47 19 51 0
5 7 23 16 40 16 33 11 57 -11 48 -7 -2 -17 0 -23 6 -6 6 -11 5 -15 -4z"/>
<path d="M1969 4810 c-7 -24 -6 -60 2 -60 5 0 9 7 9 16 0 8 4 13 9 9 5 -3 13
0 17 6 4 7 3 9 -4 5 -6 -3 -15 2 -21 11 -6 10 -11 16 -12 13z"/>
<path d="M1374 4758 c-4 -7 -3 -8 4 -4 6 4 23 -1 38 -11 27 -17 27 -17 15 5
-13 23 -45 30 -57 10z"/>
<path d="M1460 4761 c0 -11 31 -24 39 -16 3 3 -1 10 -9 15 -19 12 -30 12 -30
1z"/>
<path d="M1915 4750 c-4 -6 -3 -16 3 -22 6 -6 12 -6 17 2 4 6 3 16 -3 22 -6 6
-12 6 -17 -2z"/>
<path d="M2117 4743 c10 -3 9 -9 -3 -21 -15 -15 -15 -16 2 -23 34 -13 54 -10
54 9 0 16 -38 43 -58 41 -4 0 -1 -3 5 -6z"/>
<path d="M2413 4737 c-18 -6 -33 -16 -33 -22 0 -7 -7 -15 -15 -19 -8 -3 -12
-12 -9 -21 8 -19 24 -20 24 -1 0 15 36 46 53 46 4 0 15 -17 24 -37 14 -35 16
-36 29 -18 8 10 14 15 14 10 0 -5 7 0 15 11 9 12 18 15 22 9 5 -5 19 -10 33
-10 14 1 28 -4 32 -10 11 -14 10 7 -1 23 -12 19 -78 27 -96 12 -12 -10 -15
-10 -15 -1 0 8 -8 10 -19 6 -14 -4 -20 -1 -23 13 -3 15 -8 17 -35 9z"/>
<path d="M2306 4724 c-9 -22 3 -32 14 -14 12 19 12 30 1 30 -5 0 -12 -7 -15
-16z"/>
<path d="M1252 4713 c2 -9 16 -21 32 -26 23 -8 32 -6 48 11 13 13 16 22 9 26
-6 4 -14 0 -17 -8 -5 -14 -10 -14 -41 -1 -31 13 -34 13 -31 -2z"/>
<path d="M1890 4704 c0 -15 23 -44 34 -44 3 0 6 7 6 15 0 8 -7 15 -16 15 -10
0 -14 6 -10 15 3 8 1 15 -4 15 -6 0 -10 -7 -10 -16z"/>
<path d="M2039 4703 c-7 -13 -19 -23 -26 -23 -7 0 -13 -7 -13 -15 0 -8 -7 -15
-16 -15 -11 0 -13 -6 -9 -19 4 -14 0 -21 -15 -26 -24 -8 -22 -14 8 -20 15 -3
23 4 33 28 7 18 23 44 37 59 13 14 22 32 20 40 -3 9 -9 6 -19 -9z"/>
<path d="M651 4682 c-14 -27 -14 -43 0 -18 9 15 13 16 20 5 5 -8 9 -9 9 -4 0
6 -4 16 -9 24 -7 11 -11 10 -20 -7z"/>
<path d="M2267 4694 c-3 -4 1 -20 9 -36 18 -34 19 -34 28 5 5 20 3 27 -5 22
-6 -4 -14 -2 -18 4 -4 6 -10 8 -14 5z"/>
<path d="M2620 4670 c0 -5 4 -10 8 -10 5 0 14 -10 20 -22 8 -18 11 -19 11 -5
1 9 6 17 13 17 16 0 -23 29 -39 30 -7 0 -13 -4 -13 -10z"/>
<path d="M2103 4641 c-2 -25 1 -28 20 -23 12 3 24 8 27 12 3 4 14 12 25 17 18
10 18 11 -5 10 -14 0 -34 2 -45 6 -17 6 -20 2 -22 -22z"/>
<path d="M1200 4650 c0 -5 -6 -9 -12 -7 -7 1 -14 -8 -16 -20 -3 -18 0 -22 14
-16 11 4 15 2 12 -7 -2 -8 -19 -18 -37 -22 -17 -5 -35 -17 -38 -26 -4 -9 -13
-22 -21 -28 -13 -9 -11 -12 7 -17 16 -4 21 -1 19 11 -2 13 3 16 22 14 15 -1
30 5 39 15 9 13 15 14 18 6 5 -15 43 -18 43 -4 0 5 9 11 20 14 14 4 20 14 20
35 0 25 -4 30 -30 34 -31 5 -32 2 -13 -49 6 -15 -6 -17 -26 -4 -12 8 -12 12
-2 25 10 12 10 16 2 16 -8 0 -10 8 -6 20 4 11 2 20 -4 20 -6 0 -11 -4 -11 -10z"/>
<path d="M1826 4643 c-8 -8 -20 -9 -141 -13 -42 -2 -52 -4 -35 -9 17 -5 21 -9
12 -15 -7 -4 -27 1 -47 13 -19 11 -35 16 -35 11 0 -13 -37 -13 -45 0 -3 6 -11
10 -18 10 -6 0 -2 -7 9 -15 26 -19 -1 -20 -36 0 -35 20 -62 19 -36 0 26 -19 9
-19 -28 0 -29 15 -51 12 -40 -7 4 -5 -5 -2 -20 7 -20 13 -26 14 -26 4 0 -29
18 -34 125 -36 61 -1 121 -3 135 -3 14 -1 81 -1 150 -1 69 1 136 0 150 -2 19
-1 25 3 25 18 0 19 -12 35 -27 35 -5 0 -8 -7 -8 -15 0 -13 -4 -13 -22 -3 -13
7 -26 16 -29 21 -3 4 -9 4 -13 0z"/>
<path d="M2337 4643 c-4 -3 -7 -13 -7 -21 0 -12 3 -12 15 -2 8 7 15 16 15 21
0 11 -14 12 -23 2z"/>
<path d="M1085 4633 c-33 -8 -109 -44 -127 -60 -35 -31 -58 -92 -58 -154 0
-44 3 -59 13 -56 6 2 20 -8 29 -22 22 -32 22 -26 3 29 -19 54 -10 116 22 148
13 13 21 28 17 33 -3 5 -2 9 3 8 4 -1 11 0 16 1 4 1 13 3 20 4 6 1 12 8 11 17
-1 11 7 14 32 11 51 -6 84 5 84 28 0 20 -19 24 -65 13z"/>
<path d="M2184 4626 c-3 -8 -1 -38 5 -66 6 -29 9 -56 6 -60 -3 -5 5 -19 17
-31 18 -17 19 -20 6 -16 -10 4 -18 4 -18 2 0 -13 35 -75 42 -75 5 0 7 -4 3 -9
-3 -5 -1 -12 5 -16 6 -4 8 -11 5 -16 -4 -5 -1 -9 6 -9 7 0 9 8 4 23 -4 12 -11
43 -17 70 -6 26 -15 47 -20 47 -6 0 -8 7 -4 15 3 8 1 15 -5 15 -11 0 -8 32 5
41 10 8 -2 51 -13 44 -5 -2 -7 7 -5 20 3 29 -13 44 -22 21z"/>
<path d="M2391 4618 c-35 -10 -33 -21 7 -33 13 -4 22 -2 22 4 0 18 28 12 33
-6 3 -12 5 -9 6 8 1 16 -5 29 -15 33 -9 3 -16 6 -17 5 -1 0 -17 -5 -36 -11z"/>
<path d="M1330 4597 c0 -11 23 -51 34 -59 6 -4 5 -17 -2 -34 -7 -14 -10 -29
-7 -32 3 -3 -1 -12 -8 -21 -19 -22 -28 -51 -17 -51 5 0 11 4 14 8 3 5 27 6 55
2 42 -5 50 -4 54 11 5 20 -10 39 -32 39 -11 0 -11 -3 3 -13 16 -12 17 -15 3
-20 -8 -3 -25 3 -38 14 -12 10 -19 19 -14 19 4 0 2 6 -4 14 -8 10 -9 16 -1 21
5 3 10 0 10 -7 1 -9 3 -9 9 2 14 23 1 69 -23 82 -11 6 -24 16 -28 22 -4 6 -8
8 -8 3z"/>
<path d="M2111 4552 c-1 -29 4 -63 11 -75 17 -31 17 -40 3 -54 -10 -9 -14 -9
-18 1 -3 7 -15 16 -27 19 -18 5 -21 2 -17 -14 3 -10 4 -19 2 -19 -2 0 -11 -3
-20 -7 -14 -5 -16 -2 -10 17 6 20 5 22 -22 16 -21 -5 -34 -2 -43 9 -7 8 -18
15 -24 15 -6 0 -4 -5 4 -10 11 -7 11 -10 2 -10 -10 0 -10 -5 -2 -20 7 -13 21
-20 40 -20 54 0 45 -19 -39 -77 -2 -2 -1 -6 2 -10 4 -3 16 2 27 12 22 19 22
19 37 -8 9 -17 11 -16 28 5 11 13 13 17 5 11 -18 -17 -27 -16 -33 1 -3 8 3 24
14 37 10 12 19 17 19 10 0 -9 5 -9 21 0 14 7 19 17 16 31 -5 18 -4 19 12 4 10
-9 20 -14 23 -11 8 8 31 -32 57 -97 13 -32 27 -58 31 -58 6 0 15 15 38 63 2 4
-3 7 -12 7 -10 0 -13 -6 -10 -15 5 -11 2 -13 -10 -9 -10 4 -15 12 -12 20 3 7
-2 18 -10 24 -8 7 -14 21 -14 31 0 11 -5 19 -11 19 -6 0 -9 7 -6 15 4 8 2 17
-4 21 -6 3 -3 11 8 19 15 11 15 17 5 39 -12 27 -32 35 -32 14 0 -9 -3 -9 -9 1
-11 17 -3 43 11 35 16 -10 28 18 17 39 -6 10 -17 16 -24 13 -8 -3 -16 0 -19 7
-2 7 -5 -12 -5 -41z"/>
<path d="M2312 4584 c2 -10 25 -25 54 -36 46 -18 53 -25 76 -76 15 -31 41
-109 59 -173 l32 -116 61 13 c34 7 96 15 139 19 l77 7 2 37 c4 75 2 101 -7
104 -5 1 -8 -23 -6 -54 3 -64 -9 -80 -57 -76 -24 1 -32 7 -32 22 0 17 -2 17
-13 -5 -11 -21 -19 -24 -50 -22 -22 2 -37 -1 -37 -7 0 -6 -11 -11 -25 -11 -26
0 -50 32 -41 56 3 8 -4 31 -15 51 -11 20 -18 45 -16 55 3 10 1 18 -3 18 -5 0
-11 14 -15 30 -4 17 -13 30 -21 30 -10 0 -14 13 -14 44 0 41 -2 45 -32 55 -55
19 -88 36 -88 43 0 5 -7 8 -16 8 -9 0 -14 -7 -12 -16z"/>
<path d="M595 4570 c-3 -5 -12 -7 -21 -3 -8 3 -21 -3 -29 -13 -12 -17 -11 -20
8 -27 15 -5 23 -3 30 8 4 8 12 13 18 10 5 -4 9 3 9 14 0 23 -5 27 -15 11z"/>
<path d="M816 4555 c-10 -15 -15 -29 -12 -32 3 -3 8 2 12 11 7 19 30 21 37 4
2 -7 8 -9 13 -5 4 4 -1 17 -12 28 l-21 20 -17 -26z"/>
<path d="M1716 4572 c-3 -5 1 -15 9 -22 16 -14 20 -3 6 19 -5 8 -11 9 -15 3z"/>
<path d="M1750 4566 c0 -8 51 -13 56 -5 3 5 -9 9 -25 9 -17 0 -31 -2 -31 -4z"/>
<path d="M1895 4561 c-6 -11 9 -23 19 -14 9 9 7 23 -3 23 -6 0 -12 -4 -16 -9z"/>
<path d="M1075 4551 c-6 -11 9 -23 19 -14 9 9 7 23 -3 23 -6 0 -12 -4 -16 -9z"/>
<path d="M1410 4538 c0 -17 3 -19 9 -9 5 7 15 17 22 22 10 6 8 9 -8 9 -17 0
-23 -6 -23 -22z"/>
<path d="M1546 4546 c3 -9 11 -16 16 -16 13 0 5 23 -10 28 -7 2 -10 -2 -6 -12z"/>
<path d="M1850 4550 c0 -5 7 -10 15 -10 8 0 15 5 15 10 0 6 -7 10 -15 10 -8 0
-15 -4 -15 -10z"/>
<path d="M1619 4538 c15 -20 36 -23 46 -8 3 6 -1 7 -10 4 -8 -4 -23 0 -33 7
-15 13 -16 12 -3 -3z"/>
<path d="M1016 4507 c-24 -32 -27 -77 -5 -77 5 0 7 10 4 23 -4 13 1 30 10 42
13 16 16 17 11 3 -6 -21 10 -34 18 -13 3 8 1 17 -5 21 -6 4 -6 11 2 20 8 9 8
14 1 14 -6 0 -22 -15 -36 -33z"/>
<path d="M1454 4524 c-18 -14 -18 -15 6 -8 31 8 50 24 29 24 -8 0 -24 -7 -35
-16z"/>
<path d="M806 4493 c-14 -20 -26 -33 -26 -28 -1 12 -23 -25 -26 -43 -1 -6 3
-9 8 -6 8 5 9 -6 4 -35 -4 -28 -3 -40 4 -36 6 3 10 -4 10 -18 0 -30 -10 -40
-27 -26 -14 13 -17 1 -5 -19 5 -7 16 -10 26 -6 14 5 17 2 15 -12 -2 -10 5 -31
15 -46 10 -15 15 -31 12 -36 -3 -6 1 -15 9 -22 13 -10 15 -9 15 11 0 26 -17
83 -36 120 -7 14 -13 34 -13 45 0 10 -2 40 -4 67 -3 36 1 51 15 64 10 9 18 22
18 29 0 7 6 14 13 17 6 2 9 7 5 11 -3 4 -18 -10 -32 -31z"/>
<path d="M870 4508 c0 -12 1 -19 3 -17 1 2 9 12 16 22 12 14 11 17 -3 17 -10
0 -16 -8 -16 -22z"/>
<path d="M1238 4515 c-26 -9 -38 -10 -38 -3 0 6 -10 -2 -22 -18 -12 -16 -27
-32 -32 -36 -6 -4 -5 -13 3 -22 17 -20 35 -21 28 -2 -9 23 16 47 74 72 58 25
48 32 -13 9z"/>
<path d="M1686 4521 c-3 -5 1 -11 9 -15 9 -3 15 0 15 9 0 16 -16 20 -24 6z"/>
<path d="M1524 4503 c2 -10 -2 -22 -8 -26 -7 -6 -4 -7 6 -3 10 3 20 1 23 -4 8
-13 35 -13 35 -1 0 5 -9 13 -21 16 -12 4 -18 12 -15 21 3 8 -1 14 -8 14 -8 0
-13 -8 -12 -17z"/>
<path d="M1926 4505 c-12 -9 -33 -12 -66 -8 -57 7 -100 -2 -100 -21 0 -10 9
-12 39 -6 22 4 44 3 48 -1 4 -4 26 -4 48 1 22 5 69 10 105 10 123 2 132 28 13
35 -47 3 -74 0 -87 -10z"/>
<path d="M705 4500 c-4 -6 2 -20 14 -31 24 -23 29 -5 7 24 -10 13 -16 15 -21
7z"/>
<path d="M1601 4496 c-10 -12 -8 -17 7 -25 11 -6 22 -7 26 -3 4 3 31 7 59 7
38 0 52 4 52 14 0 8 -7 16 -15 18 -13 4 -13 3 0 -6 11 -8 3 -11 -37 -12 -29
-1 -59 -2 -65 -3 -7 -1 -12 5 -10 12 3 16 -3 15 -17 -2z"/>
<path d="M860 4471 c0 -5 -6 -11 -14 -13 -12 -3 -12 -8 1 -38 8 -19 17 -30 20
-23 2 7 -1 22 -8 35 -11 21 -11 22 4 9 15 -12 17 -11 17 7 0 12 -4 24 -10 27
-5 3 -10 2 -10 -4z"/>
<path d="M1207 4466 c-7 -18 6 -20 34 -6 10 6 20 7 20 3 7 -45 6 -63 -1 -58
-4 3 -10 -2 -14 -10 -7 -20 -26 -19 -43 3 -13 15 -13 15 -4 -4 12 -24 41 -39
50 -26 3 5 14 11 24 15 14 5 18 16 15 49 -3 41 -4 43 -39 46 -26 2 -38 -2 -42
-12z"/>
<path d="M1486 4472 c-3 -5 1 -12 9 -16 8 -3 15 -10 15 -15 0 -6 -7 -8 -15 -5
-11 5 -13 2 -9 -10 7 -18 13 -19 31 -8 9 6 8 15 -6 36 -10 15 -21 23 -25 18z"/>
<path d="M700 4443 c0 -13 29 -38 35 -31 3 3 -4 13 -15 23 -11 10 -20 13 -20
8z"/>
<path d="M1564 4435 c11 -8 14 -15 7 -15 -7 0 -9 -5 -5 -11 4 -8 10 -6 17 6 7
12 5 20 -4 26 -23 15 -35 9 -15 -6z"/>
<path d="M1690 4440 c10 -6 11 -10 3 -10 -7 0 -13 -4 -13 -10 0 -14 27 -13 36
1 7 11 -12 29 -31 29 -5 0 -3 -5 5 -10z"/>
<path d="M1612 4421 c2 -9 14 -17 28 -18 14 -1 19 0 11 3 -10 5 -10 8 -1 14 7
5 2 9 -15 12 -20 4 -25 2 -23 -11z"/>
<path d="M1750 4423 c0 -12 8 -18 24 -18 20 0 22 3 15 18 -5 9 -16 17 -24 17
-8 0 -15 -8 -15 -17z"/>
<path d="M1817 4420 c-6 -23 15 -27 32 -6 9 11 8 15 -5 20 -22 8 -21 9 -27
-14z"/>
<path d="M1883 4421 c-1 -13 4 -19 17 -18 15 1 16 5 9 19 -13 24 -24 23 -26
-1z"/>
<path d="M2410 4417 c0 -14 5 -29 10 -32 7 -4 8 3 4 22 -9 38 -14 42 -14 10z"/>
<path d="M1030 4417 c0 -3 9 -21 21 -39 17 -28 19 -29 14 -8 -7 24 -35 62 -35
47z"/>
<path d="M2190 4390 c0 -19 3 -21 12 -12 9 9 9 15 0 24 -9 9 -12 7 -12 -12z"/>
<path d="M1850 4390 c-8 -5 -13 -10 -10 -11 3 0 13 -2 22 -4 11 -2 15 2 11 11
-6 16 -4 16 -23 4z"/>
<path d="M2300 4381 c16 -31 32 -36 18 -7 -6 14 -15 26 -20 26 -5 0 -4 -9 2
-19z"/>
<path d="M869 4373 c-6 -36 -5 -61 3 -76 12 -24 3 -33 -17 -17 -13 11 -14 10
-8 -6 4 -10 16 -26 27 -35 12 -10 20 -30 21 -52 1 -20 7 -43 14 -51 9 -11 9
-15 -1 -19 -7 -3 -1 -6 15 -6 15 -1 27 4 27 11 0 6 -3 9 -6 5 -3 -3 -14 2 -25
11 -12 11 -15 18 -8 23 7 4 8 12 3 20 -4 7 -9 24 -10 38 -2 13 -9 28 -16 33
-10 8 -10 11 0 15 6 2 10 9 6 14 -3 5 4 9 16 9 12 0 18 5 15 10 -4 6 -11 8
-16 5 -5 -4 -9 -1 -9 4 0 6 -6 11 -14 11 -10 0 -13 9 -11 30 2 17 2 30 0 30
-3 0 -6 -3 -6 -7z"/>
<path d="M1370 4380 c-11 -30 -8 -57 10 -68 16 -10 20 -10 20 1 0 7 -4 17 -9
23 -5 5 -11 18 -14 29 -3 11 -6 18 -7 15z"/>
<path d="M1390 4371 c0 -13 28 -22 35 -10 4 5 10 7 15 4 5 -3 11 -2 14 3 2 4
-11 9 -30 10 -19 2 -34 -2 -34 -7z"/>
<path d="M1130 4361 c0 -6 -7 -11 -16 -11 -8 0 -12 -5 -9 -11 4 -6 12 -8 19
-6 6 3 17 -1 23 -8 10 -10 9 -16 -2 -25 -8 -7 -15 -19 -15 -27 0 -13 3 -13 15
-3 8 7 28 10 45 8 16 -3 30 -2 30 1 0 3 16 11 36 17 30 10 34 9 29 -4 -5 -12
-1 -12 15 3 11 10 20 22 20 26 0 4 -32 7 -70 6 -39 -1 -70 2 -70 7 0 4 -7 6
-15 2 -9 -3 -15 0 -15 9 0 7 -4 17 -10 20 -5 3 -10 1 -10 -4z"/>
<path d="M2097 4339 c-16 -16 -23 -29 -17 -29 16 0 53 37 49 48 -2 5 -17 -3
-32 -19z"/>
<path d="M2418 4335 c2 -14 8 -25 13 -25 10 0 11 12 3 34 -10 25 -22 19 -16
-9z"/>
<path d="M2358 4313 c6 -2 12 -13 12 -23 0 -10 5 -22 10 -25 6 -3 10 -1 10 5
0 20 -20 50 -33 49 -9 0 -9 -2 1 -6z"/>
<path d="M1354 4293 c-18 -57 -29 -73 -53 -83 -20 -8 -21 -9 -3 -6 12 2 22 2
22 0 0 -3 -17 -31 -37 -62 -57 -86 -59 -89 -36 -69 12 10 23 15 25 10 3 -4 3
-2 1 6 -2 8 4 22 14 33 13 14 19 16 26 6 6 -9 7 -5 4 10 -8 33 1 52 21 45 12
-5 14 -2 8 12 -5 14 1 25 21 41 27 21 27 23 10 41 -9 11 -14 23 -10 26 3 4 3
7 -1 7 -3 0 -9 -8 -12 -17z"/>
<path d="M2276 4298 c4 -7 14 -21 22 -30 7 -9 11 -22 6 -29 -4 -7 -3 -10 3 -6
5 3 25 -9 43 -28 21 -22 36 -31 41 -24 4 7 8 5 12 -6 4 -9 3 -13 -3 -10 -6 3
-10 2 -10 -4 0 -11 112 -102 119 -96 7 7 -21 35 -35 35 -7 0 -11 6 -8 13 2 7
-5 23 -16 35 -12 12 -26 35 -31 51 -12 34 -44 54 -34 21 4 -11 4 -20 1 -20
-13 0 -86 81 -86 95 0 8 -7 15 -16 15 -9 0 -12 -5 -8 -12z"/>
<path d="M1882 4278 c-25 -15 -30 -24 -22 -32 8 -8 15 -6 24 7 7 9 18 17 24
17 5 0 12 7 16 15 7 20 -3 19 -42 -7z"/>
<path d="M930 4272 c0 -6 -3 -17 -6 -26 -4 -12 0 -16 16 -16 13 0 31 -10 41
-22 11 -11 19 -16 19 -10 0 6 -16 27 -35 48 -19 20 -35 32 -35 26z"/>
<path d="M2262 4254 c-11 -12 -10 -15 3 -20 21 -8 29 1 18 19 -7 13 -10 13
-21 1z"/>
<path d="M1190 4253 c-49 -8 -56 -15 -25 -24 23 -7 33 -4 47 11 11 11 15 19
11 19 -4 -1 -19 -4 -33 -6z"/>
<path d="M1240 4254 c0 -10 28 -34 39 -34 6 0 11 9 11 20 0 15 -7 20 -25 20
-14 0 -25 -3 -25 -6z"/>
<path d="M751 4224 c0 -16 3 -23 6 -16 2 6 10 9 16 5 7 -4 5 2 -3 13 -8 10
-16 21 -17 23 -2 2 -3 -9 -2 -25z"/>
<path d="M1819 4221 c-20 -17 -22 -22 -10 -33 8 -7 11 -8 8 -2 -9 15 19 38 37
31 10 -4 13 -1 9 9 -7 19 -16 18 -44 -5z"/>
<path d="M2227 4219 c4 -14 0 -25 -11 -31 -18 -10 -22 -28 -5 -28 5 0 7 5 4
10 -3 6 -2 10 4 10 5 0 11 -4 13 -10 2 -5 14 -1 28 10 l25 19 -24 20 c-31 27
-41 27 -34 0z"/>
<path d="M1050 4197 c27 -15 36 -14 25 2 -3 6 -16 11 -28 11 -21 0 -21 -1 3
-13z"/>
<path d="M770 4185 c0 -3 10 -16 21 -28 l21 -22 -11 22 c-11 22 -31 40 -31 28z"/>
<path d="M936 4181 c6 -6 21 -14 34 -16 30 -6 14 10 -20 20 -18 5 -22 4 -14
-4z"/>
<path d="M1530 4175 c0 -20 17 -28 23 -11 3 8 -1 17 -9 20 -8 3 -14 -1 -14 -9z"/>
<path d="M1745 4169 c-4 -6 -13 -8 -20 -5 -7 2 -15 -4 -18 -15 -4 -16 -3 -17
16 -7 12 7 25 11 29 10 3 -1 9 5 12 13 6 17 -9 20 -19 4z"/>
<path d="M1641 4149 c0 -9 6 -22 14 -29 10 -9 15 -9 15 -1 0 6 -4 11 -9 11 -5
0 -12 8 -14 18 -4 14 -5 14 -6 1z"/>
<path d="M850 4145 c-1 -5 -2 -14 -1 -19 1 -5 -4 -13 -11 -17 -10 -7 -9 -9 3
-9 18 0 33 -26 23 -41 -3 -5 0 -9 6 -9 6 0 17 -14 24 -31 l13 -30 17 25 c16
25 16 26 -4 26 -11 0 -20 6 -20 13 0 8 -9 22 -19 31 -11 10 -22 30 -24 45 -2
14 -5 22 -7 16z"/>
<path d="M2089 4128 c-7 -23 -5 -38 5 -38 6 0 12 9 12 20 0 16 -13 29 -17 18z"/>
<path d="M930 4080 c6 -11 15 -20 21 -20 6 0 6 7 -1 20 -6 11 -15 20 -21 20
-6 0 -6 -7 1 -20z"/>
<path d="M675 4082 c-14 -10 -18 -42 -6 -42 10 0 26 38 19 45 -2 2 -8 1 -13
-3z"/>
<path d="M827 4059 c13 -22 19 -26 21 -14 4 17 -15 45 -30 45 -5 0 -1 -14 9
-31z"/>
<path d="M1033 4075 c-21 -24 -14 -40 7 -17 11 12 20 24 20 27 0 10 -15 4 -27
-10z"/>
<path d="M1345 4080 c-4 -6 -10 -8 -15 -5 -5 3 -14 -5 -20 -17 -10 -21 -10
-21 3 -6 8 10 16 15 19 13 3 -3 11 1 18 10 7 8 10 15 7 15 -3 0 -9 -5 -12 -10z"/>
<path d="M1040 4034 c-10 -11 -10 -18 -2 -26 9 -9 12 -8 12 4 0 9 5 18 12 20
8 3 9 6 1 11 -6 4 -16 0 -23 -9z"/>
<path d="M696 4028 c4 -6 0 -14 -7 -19 -10 -6 -6 -8 11 -5 14 3 29 5 33 5 14
2 -2 18 -23 24 -12 3 -18 1 -14 -5z"/>
<path d="M1200 4031 c0 -6 3 -12 8 -12 42 -7 62 -6 62 1 0 4 10 6 23 3 19 -4
20 -3 5 7 -20 12 -49 10 -60 -4 -4 -6 -13 -4 -22 3 -11 9 -16 10 -16 2z"/>
<path d="M850 4008 c9 -7 14 -21 12 -30 -2 -10 1 -18 6 -18 5 0 12 -9 15 -20
3 -11 13 -20 24 -20 10 0 14 4 8 8 -5 4 -19 25 -30 46 -11 22 -27 41 -35 43
-13 4 -13 3 0 -9z"/>
<path d="M761 3984 c-1 -31 22 -54 34 -35 3 5 -1 11 -9 14 -8 3 -16 16 -19 29
-3 18 -5 16 -6 -8z"/>
<path d="M720 3984 c0 -5 7 -18 15 -28 12 -16 15 -17 15 -4 0 8 -7 21 -15 28
-8 7 -15 9 -15 4z"/>
<path d="M1140 3945 c0 -8 8 -15 18 -14 10 0 12 3 4 6 -6 2 -10 9 -6 14 3 5 0
9 -5 9 -6 0 -11 -7 -11 -15z"/>
<path d="M1140 3898 c0 -7 5 -20 10 -28 8 -12 10 -11 10 7 0 12 -4 25 -10 28
-5 3 -10 0 -10 -7z"/>
<path d="M1033 3875 c-17 -12 -23 -12 -27 -2 -3 6 -3 2 0 -10 3 -15 1 -23 -7
-23 -7 0 -9 -3 -6 -7 4 -3 -2 -16 -12 -27 -11 -12 -20 -25 -21 -31 -1 -24 -12
-45 -21 -40 -5 4 -9 -4 -9 -17 1 -22 2 -22 26 7 13 17 30 41 37 55 7 14 21 26
32 28 27 3 71 -21 67 -38 -2 -7 3 -10 12 -7 8 3 17 1 20 -6 4 -7 3 1 0 18 -7
35 -14 41 -64 49 -32 5 -37 9 -33 26 6 23 19 26 26 8 3 -7 6 -3 6 10 1 26 1
26 -26 7z"/>
<path d="M1251 3861 c-12 -7 -12 -13 -3 -24 7 -7 9 -17 5 -20 -3 -4 1 -7 9 -7
9 0 21 -13 28 -30 7 -16 16 -30 21 -30 11 0 12 17 2 22 -18 7 -54 70 -49 84 6
16 6 17 -13 5z"/>
<path d="M1146 3842 c-3 -5 -1 -22 4 -38 8 -29 8 -29 9 9 1 36 -3 45 -13 29z"/>
<path d="M1050 3769 c0 -5 -5 -7 -12 -3 -8 5 -9 2 -5 -9 9 -24 -2 -47 -19 -40
-8 3 -20 1 -27 -5 -6 -6 -28 -14 -47 -20 -19 -5 -34 -15 -32 -22 1 -6 -3 -18
-9 -26 -9 -11 -7 -14 10 -14 11 0 20 -3 20 -7 -4 -24 2 -43 11 -38 8 5 8 11 0
20 -9 10 0 15 41 24 30 7 56 8 61 3 10 -10 98 15 98 28 0 9 -31 7 -48 -4 -8
-4 -12 -1 -12 9 0 13 6 16 24 11 31 -8 38 3 20 28 -13 19 -15 18 -41 -10 -15
-16 -25 -31 -22 -34 5 -6 -130 -24 -137 -18 -12 13 11 37 39 43 102 21 107 24
107 60 0 19 -4 35 -10 35 -5 0 -10 -5 -10 -11z"/>
<path d="M1150 3731 c0 -23 5 -41 10 -41 6 0 10 15 10 34 0 19 -4 38 -10 41
-6 4 -10 -10 -10 -34z"/>
<path d="M1276 3662 c-2 -4 4 -13 15 -20 22 -14 25 -7 5 14 -8 8 -17 11 -20 6z"/>
<path d="M1265 3630 c5 -8 8 -23 7 -32 -4 -24 4 -23 11 2 3 11 -2 25 -11 32
-13 11 -14 11 -7 -2z"/>
<path d="M1305 3599 c-9 -17 -15 -33 -13 -35 3 -2 12 12 21 31 21 43 13 47 -8
4z"/>
<path d="M972 3613 c-7 -3 5 -17 30 -36 24 -16 45 -33 48 -37 3 -4 14 -12 25
-18 19 -10 20 -8 17 31 -5 66 -9 73 -31 53 -13 -12 -21 -14 -26 -6 -4 6 -13 9
-20 6 -7 -2 -16 -1 -21 4 -5 4 -15 5 -22 3z"/>
<path d="M1114 3591 c4 -5 0 -12 -6 -14 -9 -4 -9 -6 -1 -6 6 -1 9 -10 6 -21
-3 -11 0 -20 6 -20 6 0 11 6 11 13 0 8 3 7 10 -3 5 -8 11 -12 14 -9 7 7 -25
69 -36 69 -5 0 -7 -4 -4 -9z"/>
<path d="M1220 3552 c0 -4 9 -13 20 -20 11 -7 20 -9 20 -4 0 4 -9 13 -20 20
-11 7 -20 9 -20 4z"/>
<path d="M1400 3435 c7 -8 18 -15 24 -15 12 0 127 -71 194 -120 24 -18 51 -33
60 -35 10 -1 16 -7 15 -13 -2 -6 19 -30 46 -52 27 -23 68 -68 91 -101 23 -32
45 -59 50 -59 5 0 14 9 20 20 7 14 7 20 0 20 -5 0 -10 -6 -10 -12 0 -13 -13 6
-46 70 -10 17 -22 32 -28 32 -12 1 -56 35 -56 44 0 11 39 0 57 -16 10 -8 24
-13 32 -10 8 2 11 1 9 -4 -3 -5 -2 -18 3 -29 7 -18 8 -18 8 -2 1 10 6 15 11
12 6 -4 8 -14 5 -24 -3 -9 2 -26 10 -37 13 -17 14 -17 15 -1 0 9 -5 17 -11 17
-5 0 -7 5 -4 10 12 19 25 -1 25 -36 0 -19 5 -34 10 -34 6 0 10 5 10 12 0 6 10
2 23 -9 12 -11 30 -23 40 -26 12 -5 17 -17 17 -46 0 -22 5 -43 10 -46 6 -4 10
9 11 32 0 35 1 36 10 13 7 -17 7 -32 0 -48 -15 -31 -14 -36 4 -19 7 8 17 27
21 42 6 23 -1 34 -51 85 -32 33 -63 56 -68 53 -6 -3 -8 -2 -4 3 3 5 -11 23
-30 39 -20 17 -46 40 -58 53 -12 12 -27 22 -32 22 -5 0 -20 11 -33 25 -13 14
-29 25 -37 25 -7 0 -22 9 -33 20 -21 21 -221 120 -243 120 -7 0 -18 5 -23 10
-6 6 -25 15 -43 20 -28 8 -31 7 -21 -5z"/>
<path d="M1270 3431 c-22 -6 -23 -8 -7 -14 24 -9 11 -30 -14 -24 -26 7 -34
-10 -8 -18 13 -4 18 -12 15 -22 -3 -8 -6 -21 -6 -28 0 -18 -30 -28 -46 -14 -9
8 -14 8 -14 1 0 -6 9 -14 20 -17 11 -3 20 -11 20 -16 0 -12 -17 -12 -24 0 -7
11 -46 2 -46 -10 0 -5 22 -9 48 -9 l48 0 24 76 c13 41 28 78 32 80 9 6 1 25
-10 23 -4 -1 -18 -4 -32 -8z"/>
<path d="M1097 3403 c-16 -15 -5 -23 31 -22 26 1 30 3 13 6 -19 4 -21 7 -10
14 11 7 9 9 -7 9 -11 0 -24 -3 -27 -7z"/>
<path d="M1354 3375 c21 -16 32 -13 21 4 -3 6 -14 11 -23 11 -15 -1 -15 -2 2
-15z"/>
<path d="M1475 3319 c33 -39 43 -49 50 -49 12 0 -29 51 -49 62 l-21 11 20 -24z"/>
<path d="M964 3236 c-11 -24 -3 -58 10 -38 3 6 0 13 -6 15 -8 4 -4 8 10 13 13
3 21 11 19 17 -6 20 -22 17 -33 -7z"/>
<path d="M1550 3258 c0 -2 11 -20 25 -38 23 -31 25 -32 22 -10 -3 19 -47 64
-47 48z"/>
<path d="M1427 3165 c10 -13 21 -25 26 -25 11 0 9 5 -12 28 -25 30 -36 28 -14
-3z"/>
<path d="M1200 3119 c0 -17 9 -29 33 -48 25 -20 21 0 -8 33 -14 17 -25 23 -25
15z"/>
<path d="M897 3113 c-12 -12 -7 -19 13 -19 11 0 20 6 20 13 0 14 -22 18 -33 6z"/>
<path d="M2046 3095 c-6 -18 2 -45 15 -45 5 0 9 7 9 16 0 8 -4 12 -10 9 -5 -3
-10 -2 -10 4 0 5 5 11 12 13 8 3 9 6 1 11 -6 4 -13 0 -17 -8z"/>
<path d="M1057 3081 c2 -8 -2 -11 -11 -8 -10 4 -13 1 -10 -8 6 -15 20 -14 49
3 20 11 20 11 -2 12 -12 0 -23 3 -26 8 -2 4 -2 1 0 -7z"/>
<path d="M1432 3064 c-10 -12 -10 -14 2 -14 17 0 30 16 19 23 -5 3 -14 -1 -21
-9z"/>
<path d="M996 3031 c-3 -5 3 -11 14 -14 24 -6 36 8 14 17 -20 8 -22 8 -28 -3z"/>
<path d="M1394 3019 c-4 -7 0 -9 14 -5 11 4 23 2 27 -4 3 -5 11 -10 17 -10 7
0 6 6 -2 15 -15 18 -46 20 -56 4z"/>
<path d="M940 3010 c-8 -5 -11 -12 -8 -16 4 -3 14 1 23 10 18 17 9 21 -15 6z"/>
<path d="M1583 2969 c9 -6 15 -14 12 -20 -4 -5 -1 -9 4 -9 17 0 13 27 -5 34
-24 9 -31 7 -11 -5z"/>
<path d="M1100 2961 c0 -5 14 -11 31 -15 43 -8 51 -8 44 4 -3 5 -12 7 -19 4
-8 -3 -17 -1 -21 5 -8 13 -35 15 -35 2z"/>
<path d="M951 2928 c0 -9 -4 -25 -7 -35 -5 -14 -4 -15 5 -7 7 7 11 22 8 35 -2
13 -5 16 -6 7z"/>
<path d="M1226 2912 c-2 -4 12 -8 32 -9 21 -1 61 -4 90 -6 29 -3 50 -2 47 1
-11 12 -163 24 -169 14z"/>
<path d="M2018 2914 c-5 -4 -8 -21 -7 -38 0 -30 0 -30 10 -7 11 27 8 57 -3 45z"/>
<path d="M2065 2905 c-16 -12 -17 -14 -2 -9 11 4 17 1 17 -10 0 -9 5 -16 10
-16 11 0 12 7 2 33 -7 16 -9 16 -27 2z"/>
<path d="M1720 2888 c0 -9 -3 -25 -6 -35 -5 -13 -1 -11 11 5 13 18 14 27 6 35
-8 8 -11 7 -11 -5z"/>
<path d="M1027 2869 c-38 -20 -44 -39 -16 -47 8 -3 11 -1 7 3 -4 4 7 21 25 36
38 34 35 35 -16 8z"/>
<path d="M1078 2872 c-9 -11 -9 -13 -1 -9 6 4 16 1 20 -8 7 -12 12 -13 26 -3
15 12 15 14 -8 24 -20 10 -27 9 -37 -4z"/>
<path d="M910 2856 c0 -8 5 -18 10 -21 6 -3 10 -14 10 -24 0 -11 9 -29 20 -42
16 -20 19 -21 20 -6 0 9 -5 17 -10 17 -6 0 -8 11 -6 25 3 14 1 23 -5 20 -5 -4
-13 5 -19 19 -11 29 -20 34 -20 12z"/>
<path d="M1573 2845 c-3 -9 -3 -18 0 -21 9 -9 27 6 27 22 0 19 -19 18 -27 -1z"/>
<path d="M1406 2840 c-11 -3 -15 -9 -10 -13 10 -6 42 9 34 16 -3 3 -14 1 -24
-3z"/>
<path d="M781 2827 c-6 -8 -8 -17 -4 -20 12 -13 22 -7 20 13 -2 24 -1 24 -16
7z"/>
<path d="M1627 2832 c-3 -4 3 -13 14 -20 10 -7 19 -8 19 -3 0 13 -28 33 -33
23z"/>
<path d="M825 2819 c-11 -17 -2 -18 25 -4 24 14 24 14 3 15 -12 0 -25 -5 -28
-11z"/>
<path d="M2072 2805 c22 -25 58 -34 58 -14 0 6 -7 9 -15 5 -9 -3 -19 3 -25 14
-6 11 -17 20 -25 20 -11 0 -9 -6 7 -25z"/>
<path d="M668 2790 c-3 -16 -1 -30 3 -30 4 0 9 14 11 30 3 17 1 30 -3 30 -4 0
-9 -13 -11 -30z"/>
<path d="M811 2778 c-1 -10 -7 -15 -13 -13 -7 2 -20 -11 -29 -29 -8 -19 -11
-32 -5 -29 20 8 58 63 53 76 -3 7 -6 5 -6 -5z"/>
<path d="M1516 2775 c-3 -9 0 -15 8 -15 7 0 27 -7 45 -16 18 -9 35 -14 38 -10
3 3 -6 11 -21 17 -14 7 -26 18 -26 26 0 18 -36 17 -44 -2z"/>
<path d="M1871 2763 c-16 -17 -11 -25 8 -14 7 5 12 13 10 19 -2 6 -10 4 -18
-5z"/>
<path d="M910 2745 c0 -8 5 -15 10 -15 6 0 10 7 10 15 0 8 -4 15 -10 15 -5 0
-10 -7 -10 -15z"/>
<path d="M1740 2752 c0 -5 7 -16 16 -23 14 -12 16 -11 13 5 -4 20 -29 35 -29
18z"/>
<path d="M843 2743 c-7 -3 -13 -11 -13 -19 0 -8 -7 -14 -15 -14 -8 0 -15 -5
-15 -11 0 -5 -4 -7 -10 -4 -6 3 -7 -1 -4 -10 4 -8 2 -21 -4 -28 -13 -17 -11
-47 4 -47 8 0 11 6 8 13 -8 21 13 66 43 92 28 23 30 37 6 28z"/>
<path d="M1669 2668 c14 -19 57 -26 46 -7 -4 6 -13 8 -20 5 -7 -2 -19 1 -26 7
-11 10 -11 9 0 -5z"/>
<path d="M1820 2668 c0 -14 23 -58 32 -58 4 0 8 3 8 8 -1 9 -39 59 -40 50z"/>
<path d="M807 2591 c-3 -14 -8 -36 -12 -48 -5 -15 -3 -23 5 -23 7 0 10 6 7 14
-3 8 1 17 9 20 8 3 14 14 14 25 0 11 6 21 12 23 7 3 3 7 -9 10 -17 5 -22 0
-26 -21z"/>
<path d="M1744 2604 c3 -9 6 -17 6 -20 0 -2 7 -1 15 2 8 4 15 10 15 15 0 4 -7
5 -17 2 -11 -4 -14 -3 -9 5 4 7 2 12 -4 12 -7 0 -9 -7 -6 -16z"/>
<path d="M726 2584 c-10 -25 -7 -82 5 -89 15 -10 17 -5 23 55 4 43 4 47 -3 17
-11 -53 -24 -60 -16 -9 6 43 2 55 -9 26z"/>
<path d="M1870 2547 c0 -11 33 -68 42 -73 6 -4 9 -3 6 2 -2 5 -11 24 -18 42
-8 17 -18 32 -22 32 -4 0 -8 -2 -8 -3z"/>
<path d="M697 2510 c-12 -33 -17 -70 -8 -70 5 0 12 7 15 16 3 9 11 12 18 8 10
-6 10 -5 2 7 -7 8 -14 23 -16 34 -4 16 -6 17 -11 5z"/>
<path d="M777 2503 c-12 -12 -7 -32 6 -27 8 3 14 11 14 19 0 16 -9 19 -20 8z"/>
<path d="M867 2478 c-7 -27 -5 -30 17 -22 9 4 16 13 14 22 -5 25 -25 25 -31 0z"/>
<path d="M1955 2460 c-3 -5 3 -10 14 -10 12 0 21 5 21 10 0 6 -6 10 -14 10 -8
0 -18 -4 -21 -10z"/>
<path d="M760 2453 c-1 -7 -3 -17 -4 -22 0 -5 -12 -18 -26 -29 l-25 -20 28 5
c32 6 41 20 34 55 -2 13 -5 17 -7 11z"/>
<path d="M906 2415 c-5 -27 -15 -66 -22 -85 -14 -39 -36 -171 -29 -179 3 -2 5
3 5 13 0 9 4 15 8 12 5 -3 9 8 10 25 1 39 10 82 28 141 9 26 14 64 12 85 l-4
38 -8 -50z"/>
<path d="M712 2431 c2 -7 7 -12 11 -12 12 1 9 15 -3 20 -7 2 -11 -2 -8 -8z"/>
<path d="M821 2364 c-12 -37 -19 -69 -17 -72 3 -3 8 4 12 14 5 18 30 82 41
112 3 6 1 12 -5 12 -5 0 -19 -30 -31 -66z"/>
<path d="M690 2335 c0 -8 9 -15 20 -15 13 0 18 -5 14 -15 -4 -8 -1 -15 4 -15
14 0 6 41 -10 52 -19 12 -28 10 -28 -7z"/>
<path d="M754 2315 c-4 -18 -2 -30 7 -37 11 -7 11 -11 2 -15 -21 -8 -14 -66
13 -108 14 -22 22 -31 19 -20 -18 50 -18 58 1 72 16 12 17 15 4 23 -22 14 -34
12 -21 -4 8 -10 9 -16 1 -21 -5 -3 -11 -4 -11 -1 -5 21 -4 32 2 41 9 12 5 82
-4 91 -3 4 -9 -6 -13 -21z"/>
<path d="M2036 2303 c-5 -11 -1 -22 10 -30 22 -16 23 -14 17 20 -6 31 -18 35
-27 10z"/>
<path d="M1987 2273 c8 -52 13 -54 13 -5 0 23 -4 42 -9 42 -6 0 -7 -17 -4 -37z"/>
<path d="M705 2177 c-11 -45 -18 -85 -17 -89 1 -5 -5 -8 -13 -8 -21 0 -19 -33
4 -47 16 -10 22 -9 32 3 6 8 9 17 5 21 -3 3 -6 1 -6 -5 0 -7 -7 -12 -15 -12
-17 0 -20 16 -5 25 6 3 10 16 10 27 0 20 1 21 20 3 20 -18 20 -17 20 9 0 16 4
25 10 21 6 -4 8 -11 5 -16 -4 -5 -1 -9 4 -9 6 0 11 6 11 14 0 18 -31 30 -41
15 -4 -6 -12 -8 -19 -4 -10 6 -9 11 4 21 12 9 18 26 18 59 0 26 -2 48 -4 50
-2 2 -12 -33 -23 -78z"/>
<path d="M2071 2215 c0 -16 4 -37 9 -45 8 -12 10 -11 9 5 -1 11 -5 31 -9 45
-8 24 -8 24 -9 -5z"/>
<path d="M2010 2164 c0 -10 44 -64 52 -64 13 0 -23 58 -39 64 -7 3 -13 3 -13
0z"/>
<path d="M741 2032 c-7 -34 -17 -62 -22 -62 -19 0 -9 -49 11 -55 14 -4 20 -15
20 -36 0 -16 -4 -29 -10 -29 -5 0 -7 6 -4 14 3 8 1 17 -4 20 -11 7 -24 -33
-16 -46 4 -5 13 -7 21 -4 8 3 11 1 8 -4 -3 -6 -13 -10 -21 -10 -16 0 -19 -26
-4 -35 6 -4 8 -16 4 -28 -3 -12 -3 -19 1 -15 13 12 35 -12 35 -38 0 -13 5 -24
11 -24 7 0 9 10 4 28 -4 15 -9 68 -12 117 -2 50 -4 95 -5 100 -1 6 2 20 6 33
10 30 -2 28 -14 -3 -10 -26 -30 -34 -30 -12 1 16 25 47 37 47 6 0 8 11 6 24
-3 13 0 27 6 30 6 4 11 12 11 17 0 6 -4 8 -9 4 -5 -3 -11 2 -13 12 -2 9 -9
-11 -17 -45z"/>
<path d="M2087 2040 c4 -30 7 -73 7 -95 -1 -35 2 -41 20 -42 20 -2 20 -1 2 9
-11 6 -14 13 -8 17 14 8 0 137 -17 154 -10 10 -11 1 -4 -43z"/>
<path d="M905 2011 c2 -40 6 -76 10 -79 8 -8 5 68 -5 113 -7 33 -8 26 -5 -34z"/>
<path d="M840 2021 c0 -21 -2 -60 -5 -87 -4 -44 -3 -42 10 16 17 78 18 110 5
110 -5 0 -10 -17 -10 -39z"/>
<path d="M849 1893 c-1 -5 -3 -18 -4 -30 -1 -12 -5 -27 -7 -35 -7 -16 18 -55
28 -45 4 4 1 13 -6 22 -10 12 -10 15 0 15 10 0 10 3 0 15 -10 12 -10 15 1 15
11 0 11 2 1 8 -7 5 -10 16 -6 25 3 9 3 17 0 17 -3 0 -7 -3 -7 -7z"/>
<path d="M2104 1869 c-3 -6 -2 -14 4 -18 5 -3 12 -15 15 -26 3 -13 5 -10 6 12
1 33 -13 51 -25 32z"/>
<path d="M2117 1794 c-3 -4 -2 -15 4 -25 5 -10 9 -33 9 -51 0 -90 -1 -103 -10
-112 -6 -6 -10 -14 -10 -20 0 -6 5 -5 12 2 15 15 32 16 23 2 -6 -10 8 -14 17
-5 3 4 1 25 -4 48 -13 55 -16 84 -17 130 -1 35 -9 45 -24 31z"/>
<path d="M830 1600 c0 -84 4 -150 9 -150 15 0 18 22 10 59 -4 18 -4 43 0 55 5
11 6 26 4 33 -2 7 0 20 6 30 8 14 10 15 11 3 0 -13 2 -13 9 0 14 20 3 32 -18
20 -17 -8 -18 -6 -10 33 4 23 4 46 1 52 -3 5 2 4 11 -4 15 -12 17 -12 11 3 -3
9 -15 16 -25 16 -18 0 -19 -9 -19 -150z"/>
<path d="M721 1718 c1 -7 0 -24 -4 -38 -3 -14 -8 -45 -10 -70 -4 -41 -1 -47
20 -57 22 -11 23 -10 17 10 -4 12 -11 23 -15 25 -9 4 -1 50 11 67 10 13 0 75
-12 75 -5 0 -8 -6 -7 -12z"/>
<path d="M881 1558 c0 -31 3 -37 8 -24 7 18 3 66 -5 66 -2 0 -4 -19 -3 -42z"/>
<path d="M2143 1562 c-23 -2 -33 -8 -32 -20 0 -11 3 -12 6 -4 2 6 11 12 19 12
9 0 12 -4 9 -10 -9 -14 7 -12 28 4 22 17 13 23 -30 18z"/>
<path d="M711 1475 c0 -36 -3 -71 -7 -77 -5 -7 -2 -9 9 -5 11 4 22 -3 34 -23
9 -16 20 -27 25 -24 5 3 6 9 3 14 -3 4 2 10 10 14 8 3 14 13 14 23 -1 17 -2
17 -6 1 -10 -41 -63 -9 -63 38 0 14 3 15 12 6 16 -16 28 -15 28 2 0 7 -10 16
-22 19 l-21 6 24 21 c13 12 19 19 12 15 -7 -3 -17 4 -23 15 -19 36 -28 21 -29
-45z"/>
<path d="M2140 1505 c-10 -12 -10 -15 4 -15 9 0 16 7 16 15 0 8 -2 15 -4 15
-2 0 -9 -7 -16 -15z"/>
<path d="M2057 1493 c-10 -10 -8 -85 2 -79 11 7 19 62 11 76 -3 6 -9 7 -13 3z"/>
<path d="M2094 1368 c-4 -7 -3 -8 4 -4 7 4 12 2 12 -3 0 -6 4 -11 10 -11 5 0
7 7 4 15 -7 18 -20 19 -30 3z"/>
<path d="M2146 1225 c3 -22 8 -42 10 -44 9 -9 3 55 -6 69 -7 11 -8 3 -4 -25z"/>
<path d="M2120 1171 c0 -6 4 -12 9 -15 4 -3 11 -24 15 -46 3 -22 11 -40 17
-40 13 0 2 78 -13 98 -12 14 -28 16 -28 3z"/>
<path d="M750 1059 c0 -16 20 -49 30 -49 4 0 2 14 -6 30 -16 31 -24 38 -24 19z"/>
</g>
</svg>
